<?xml version="1.0" encoding="UTF-8" standalone="no"?>
<svg
   xmlns:dc="http://purl.org/dc/elements/1.1/"
   xmlns:cc="http://creativecommons.org/ns#"
   xmlns:rdf="http://www.w3.org/1999/02/22-rdf-syntax-ns#"
   xmlns:svg="http://www.w3.org/2000/svg"
   xmlns="http://www.w3.org/2000/svg"
   xmlns:sodipodi="http://sodipodi.sourceforge.net/DTD/sodipodi-0.dtd"
   xmlns:inkscape="http://www.inkscape.org/namespaces/inkscape"
   width="20"
   height="20"
   id="svg3026"
   version="1.1"
   inkscape:version="0.48.4 r9939"
   sodipodi:docname="Back.svg">
  <metadata
     id="metadata3038">
    <rdf:RDF>
      <cc:Work
         rdf:about="">
        <dc:format>image/svg+xml</dc:format>
        <dc:type
           rdf:resource="http://purl.org/dc/dcmitype/StillImage" />
        <dc:title></dc:title>
      </cc:Work>
    </rdf:RDF>
  </metadata>
  <defs
     id="defs3036">
    <linearGradient
       id="linearGradient4006">
      <stop
         style="stop-color:#252525;stop-opacity:1;"
         offset="0"
         id="stop4008" />
      <stop
         style="stop-color:#4a4a4a;stop-opacity:1;"
         offset="1"
         id="stop4010" />
    </linearGradient>
  </defs>
  <sodipodi:namedview
     pagecolor="#ffffff"
     bordercolor="#666666"
     borderopacity="1"
     objecttolerance="10"
     gridtolerance="10"
     guidetolerance="10"
     inkscape:pageopacity="0"
     inkscape:pageshadow="2"
     inkscape:window-width="1280"
     inkscape:window-height="961"
     id="namedview3034"
     showgrid="true"
     inkscape:zoom="26.304372"
     inkscape:cx="11.841239"
     inkscape:cy="6.8249439"
     inkscape:window-x="-8"
     inkscape:window-y="-8"
     inkscape:window-maximized="1"
     inkscape:current-layer="g3028">
    <inkscape:grid
       type="xygrid"
       id="grid3040" />
  </sodipodi:namedview>
  <g
     id="g3028"
     stroke-width="2.23"
     stroke="#d40000">
    <path
       inkscape:connector-curvature="0"
       id="path4003"
       style="font-size:11.38508987px;font-style:normal;font-variant:normal;font-weight:normal;font-stretch:normal;text-align:start;line-height:125%;letter-spacing:0px;word-spacing:0px;writing-mode:lr-tb;text-anchor:start;fill:#1a1a1a;fill-opacity:1;stroke:none;font-family:Segoe UI Symbol;-inkscape-font-specification:Segoe UI Symbol"
       d="m 18.268133,9.9956035 c -2e-5,0.7560365 -0.09966,1.4842425 -0.298902,2.1846165 -0.199287,0.700357 -0.477675,1.358232 -0.835165,1.973627 -0.357528,0.615372 -0.786831,1.175079 -1.287912,1.67912 -0.501116,0.504017 -1.057891,0.936251 -1.67033,1.296703 -0.612469,0.360426 -1.270344,0.640279 -1.973627,0.839561 -0.703309,0.199253 -1.432978,0.298886 -2.18901,0.298901 C 9.257132,18.268117 8.528928,18.168482 7.828571,17.969231 7.128196,17.769949 6.473252,17.490096 5.863737,17.12967 5.254206,16.769218 4.695964,16.336984 4.189011,15.832967 3.682046,15.328926 3.248347,14.769219 2.887912,14.153847 2.527468,13.538452 2.24615,12.880577 2.043956,12.18022 1.841755,11.479846 1.740656,10.75164 1.74066,9.9956035 c -4e-6,-0.756049 0.09963,-1.484254 0.298901,-2.184615 0.199263,-0.70037 0.479116,-1.356779 0.83956,-1.969231 0.360435,-0.612454 0.792669,-1.169231 1.296704,-1.67033 0.504022,-0.501098 1.063729,-0.931867 1.67912,-1.292307 0.615377,-0.360439 1.273251,-0.640292 1.973626,-0.839561 0.700357,-0.199264 1.428561,-0.298899 2.184616,-0.2989 0.756032,10e-7 1.485701,0.09964 2.18901,0.2989 0.703283,0.199269 1.361158,0.477658 1.973627,0.835165 0.612439,0.357511 1.169214,0.786814 1.67033,1.287912 0.501081,0.501099 0.930384,1.05934 1.287912,1.674726 0.35749,0.615382 0.635878,1.273256 0.835165,1.973626 0.199247,0.700361 0.298882,1.428566 0.298902,2.184615 z m -2.769231,0.035172 0,-0.035172 -4.026374,-4.210988 -2.918682,0 3.068132,3.138462 -6.672527,0 0,2.1802195 6.672527,0 -3.068132,3.138461 2.918682,0 z M 20,9.9868115 c -2.1e-5,-0.90843 -0.120171,-1.784619 -0.360439,-2.628572 -0.240315,-0.843958 -0.58024,-1.636632 -1.01978,-2.378021 -0.43958,-0.741393 -0.964123,-1.416851 -1.573627,-2.026375 C 16.436613,2.3443225 15.761155,1.8197795 15.019782,1.3802185 14.278373,0.94065953 13.484235,0.60073453 12.637363,0.36043753 11.790462,0.12014953 10.912808,2.5255985e-6 10.004396,-4.7440151e-7 9.09596,2.5255985e-6 8.218306,0.12015453 7.371429,0.36043853 6.524534,0.60073553 5.730396,0.93773053 4.989011,1.3714285 4.247613,1.8051295 3.570691,2.3267405 2.958242,2.9362635 2.345784,3.5457875 1.819777,4.2212455 1.38022,4.9626375 0.940657,5.7040275 0.60073,6.4981655 0.36044,7.3450535 0.120145,8.1919365 -1.999975e-6,9.0725215 0,9.9868125 -1.999975e-6,10.89523 0.120145,11.772886 0.36044,12.61978 c 0.24029,0.846877 0.580217,1.641015 1.01978,2.382417 0.439557,0.74138 0.965564,1.418303 1.578022,2.03077 0.612449,0.61244 1.289371,1.138447 2.030769,1.578022 0.741385,0.439545 1.535523,0.780937 2.382418,1.024176 0.846877,0.243207 1.724531,0.364819 2.632967,0.364835 0.908412,-1.6e-5 1.786066,-0.120163 2.632967,-0.36044 0.846872,-0.240308 1.64101,-0.57877 2.382419,-1.015384 0.741373,-0.436645 1.416831,-0.961186 2.026372,-1.573627 0.609504,-0.612467 1.134047,-1.28939 1.573627,-2.03077 0.43954,-0.741402 0.779465,-1.537005 1.01978,-2.386812 C 19.879832,11.783143 19.999979,10.901091 20,9.9868125 z" />
  </g>
</svg>
