<?xml version="1.0" encoding="UTF-8" standalone="no"?>
<svg
   xmlns:dc="http://purl.org/dc/elements/1.1/"
   xmlns:cc="http://creativecommons.org/ns#"
   xmlns:rdf="http://www.w3.org/1999/02/22-rdf-syntax-ns#"
   xmlns:svg="http://www.w3.org/2000/svg"
   xmlns="http://www.w3.org/2000/svg"
   xmlns:sodipodi="http://sodipodi.sourceforge.net/DTD/sodipodi-0.dtd"
   xmlns:inkscape="http://www.inkscape.org/namespaces/inkscape"
   width="20"
   height="20"
   id="svg3026"
   version="1.1"
   inkscape:version="0.91 r13725"
   sodipodi:docname="up.svg"
   inkscape:export-filename="/home/dvojtise/git/gemoc-studio-userguide/src/docbkx/resources/images/community/docbook/up.png"
   inkscape:export-xdpi="216"
   inkscape:export-ydpi="216">
  <metadata
     id="metadata3038">
    <rdf:RDF>
      <cc:Work
         rdf:about="">
        <dc:format>image/svg+xml</dc:format>
        <dc:type
           rdf:resource="http://purl.org/dc/dcmitype/StillImage" />
        <dc:title></dc:title>
      </cc:Work>
    </rdf:RDF>
  </metadata>
  <defs
     id="defs3036">
    <linearGradient
       id="linearGradient4006">
      <stop
         style="stop-color:#252525;stop-opacity:1;"
         offset="0"
         id="stop4008" />
      <stop
         style="stop-color:#4a4a4a;stop-opacity:1;"
         offset="1"
         id="stop4010" />
    </linearGradient>
  </defs>
  <sodipodi:namedview
     pagecolor="#ffffff"
     bordercolor="#666666"
     borderopacity="1"
     objecttolerance="10"
     gridtolerance="10"
     guidetolerance="10"
     inkscape:pageopacity="0"
     inkscape:pageshadow="2"
     inkscape:window-width="1855"
     inkscape:window-height="1176"
     id="namedview3034"
     showgrid="true"
     inkscape:zoom="26.304372"
     inkscape:cx="3.2685196"
     inkscape:cy="6.8249439"
     inkscape:window-x="4545"
     inkscape:window-y="264"
     inkscape:window-maximized="1"
     inkscape:current-layer="g3028">
    <inkscape:grid
       type="xygrid"
       id="grid3040" />
  </sodipodi:namedview>
  <g
     id="g3028"
     stroke-width="2.23"
     stroke="#d40000">
    <path
       inkscape:connector-curvature="0"
       id="path4003"
       style="font-style:normal;font-variant:normal;font-weight:normal;font-stretch:normal;font-size:11.38508987px;line-height:125%;font-family:'Segoe UI Symbol';-inkscape-font-specification:'Segoe UI Symbol';text-align:start;letter-spacing:0px;word-spacing:0px;writing-mode:lr-tb;text-anchor:start;fill:#1a1a1a;fill-opacity:1;stroke:none"
       d="m 9.9956037,1.7318668 c 0.7560363,2e-5 1.4842423,0.09966 2.1846163,0.298902 0.700357,0.199287 1.358232,0.477675 1.973627,0.835165 0.615372,0.357528 1.175079,0.786831 1.67912,1.287912 0.504017,0.501116 0.936251,1.057891 1.296703,1.67033 0.360426,0.612469 0.640279,1.270344 0.839561,1.973627 0.199253,0.703309 0.298886,1.432978 0.298901,2.18901 -1.5e-5,0.7560552 -0.09965,1.4842592 -0.298901,2.1846162 -0.199282,0.700375 -0.479135,1.355319 -0.839561,1.964834 -0.360452,0.609531 -0.792686,1.167773 -1.296703,1.674726 -0.504041,0.506965 -1.063748,0.940664 -1.67912,1.301099 -0.615395,0.360444 -1.27327,0.641762 -1.973627,0.843956 -0.700374,0.202201 -1.42858,0.3033 -2.1846163,0.303296 -0.756049,4e-6 -1.484254,-0.09963 -2.184615,-0.298901 -0.70037,-0.199263 -1.356779,-0.479116 -1.969231,-0.83956 -0.612454,-0.360435 -1.169231,-0.792669 -1.67033,-1.296704 -0.501098,-0.504022 -0.931867,-1.063729 -1.292307,-1.67912 -0.360439,-0.615377 -0.640292,-1.273251 -0.839561,-1.973626 -0.199264,-0.700357 -0.298899,-1.428561 -0.2989,-2.1846162 1e-6,-0.756032 0.09964,-1.485701 0.2989,-2.18901 0.199269,-0.703283 0.477658,-1.361158 0.835165,-1.973627 0.357511,-0.612439 0.786814,-1.169214 1.287912,-1.67033 0.501099,-0.501081 1.05934,-0.930384 1.674726,-1.287912 0.615382,-0.35749 1.273256,-0.635878 1.973626,-0.835165 0.700361,-0.199247 1.428566,-0.298882 2.184615,-0.298902 z m 0.035172,2.769231 -0.035172,0 -4.210988,4.026374 0,2.9186822 3.138462,-3.0681322 0,6.6725272 2.1802193,0 0,-6.6725272 3.138461,3.0681322 0,-2.9186822 z M 9.9868117,-2.3721324e-7 C 9.0783817,2.0762787e-5 8.2021927,0.12017076 7.3582397,0.36043876 c -0.843958,0.240315 -1.636632,0.58024 -2.378021,1.01978004 -0.741393,0.43958 -1.416851,0.964123 -2.026375,1.573627 -0.609521,0.609541 -1.134064,1.284999 -1.573625,2.026372 C 0.94065977,5.7216268 0.60073477,6.5157648 0.36043777,7.3626368 0.12014977,8.2095378 2.7627868e-6,9.0871918 -2.3721324e-7,9.9956038 2.7627868e-6,10.90404 0.12015477,11.781694 0.36043877,12.628571 c 0.240297,0.846895 0.577292,1.641033 1.01098993,2.382418 0.433701,0.741398 0.955312,1.41832 1.564835,2.030769 0.609524,0.612458 1.284982,1.138465 2.026374,1.578022 0.74139,0.439563 1.535528,0.77949 2.382416,1.01978 0.846883,0.240295 1.727468,0.360442 2.641759,0.36044 0.9084173,2e-6 1.7860733,-0.120145 2.6329673,-0.36044 0.846877,-0.24029 1.641015,-0.580217 2.382417,-1.01978 0.74138,-0.439557 1.418303,-0.965564 2.03077,-1.578022 0.61244,-0.612449 1.138447,-1.289371 1.578022,-2.030769 0.439545,-0.741385 0.780937,-1.535523 1.024176,-2.382418 C 19.878372,11.781694 19.999984,10.90404 20,9.9956038 19.999984,9.0871918 19.879837,8.2095378 19.63956,7.3626368 19.399252,6.5157648 19.06079,5.7216268 18.624176,4.9802178 18.187531,4.2388448 17.66299,3.5633868 17.050549,2.9538458 16.438082,2.3443418 15.761159,1.8197988 15.019779,1.3802188 14.278377,0.94067876 13.482774,0.60075376 12.632967,0.36043876 11.783143,0.12016776 10.901091,2.0762787e-5 9.9868127,-2.3721324e-7 Z" />
  </g>
</svg>
