<?xml version="1.0" encoding="iso-8859-1"?>
<!-- Generator: Adobe Illustrator 12.0.1, SVG Export Plug-In . SVG Version: 6.00 Build 51448)  -->
<!DOCTYPE svg PUBLIC "-//W3C//DTD SVG 1.1//EN" "http://www.w3.org/Graphics/SVG/1.1/DTD/svg11.dtd" [
	<!ENTITY ns_svg "http://www.w3.org/2000/svg">
	<!ENTITY ns_xlink "http://www.w3.org/1999/xlink">
]>
<svg  version="1.1" id="Layer_1" xmlns="&ns_svg;" xmlns:xlink="&ns_xlink;" width="300" height="300" viewBox="0 0 300 300"
	 style="overflow:visible;enable-background:new 0 0 300 300;" xml:space="preserve">
<path style="fill:#800000;" d="M150,0c82.8,0,150,67.2,150,150s-67.2,150-150,150S0,232.8,0,150S67.2,0,150,0"/>
<path style="fill:#FFBF00;" d="M150,15c74.6,0,135,60.4,135,135c0,74.6-60.4,135-135,135S15,224.6,15,150C15,75.4,75.4,15,150,15"/>
<path style="fill:#FFFFFF;stroke:#000000;stroke-width:9.534;stroke-linejoin:round;" d="M144.7,255.2c-37.8,0-73.6,0-73.6-100.9
	C71,63,87.7,80.6,95.6,88.1l0.5-15.8c0.4-11.7,28.1-11,28.1-1.8l0.1-14.4c0.1-15.3,32.2-13.7,32.4-3.6l0.5,19.7
	c0.3-11.1,25.2-15.3,26,6.3c0,33.6-0.3,69.8-0.7,80.6c13,14.4,27.3-55.9,52.5-43c11.2,11.7-32.5,94.3-37.2,103
	C193.3,227.4,173.1,255.2,144.7,255.2z"/>
<line style="fill:#FFFFFF;stroke:#000000;stroke-width:4.806;" x1="126.3" y1="58.2" x2="126.3" y2="144.7"/>
<line style="fill:#FFFFFF;stroke:#000000;stroke-width:4.806;" x1="154.6" y1="58.2" x2="155.2" y2="149.5"/>
<path style="fill:#FFFFFF;stroke:#000000;stroke-width:4.806;" d="M169.6,175.9c0,0-24,4.8-33.6,52.9"/>
<line style="fill:#FFFFFF;stroke:#000000;stroke-width:4.806;" x1="97.5" y1="82.2" x2="97.5" y2="154.9"/>
<path style="fill:#FFFFFF;stroke:#000000;stroke-width:4.806;" d="M84.9,164.5c20.4-22.1,59.5-21.1,80.5-13.8"/>
</svg>
