<?xml version="1.0" encoding="UTF-8" standalone="no"?>
<!-- Created with Inkscape (http://www.inkscape.org/) -->

<svg
   xmlns:dc="http://purl.org/dc/elements/1.1/"
   xmlns:cc="http://creativecommons.org/ns#"
   xmlns:rdf="http://www.w3.org/1999/02/22-rdf-syntax-ns#"
   xmlns:svg="http://www.w3.org/2000/svg"
   xmlns="http://www.w3.org/2000/svg"
   xmlns:sodipodi="http://sodipodi.sourceforge.net/DTD/sodipodi-0.dtd"
   xmlns:inkscape="http://www.inkscape.org/namespaces/inkscape"
   version="1.1"
   id="svg2"
   xml:space="preserve"
   width="721.84735"
   height="413.44815"
   viewBox="0 0 721.84735 413.44815"
   sodipodi:docname="eclipse Gemoc Studio_text.svg"
   inkscape:version="0.92.4 (f8dce91, 2019-08-02)"><metadata
     id="metadata8"><rdf:RDF><cc:Work
         rdf:about=""><dc:format>image/svg+xml</dc:format><dc:type
           rdf:resource="http://purl.org/dc/dcmitype/StillImage" /><dc:title></dc:title></cc:Work></rdf:RDF></metadata><defs
     id="defs6" /><sodipodi:namedview
     pagecolor="#000000"
     bordercolor="#666666"
     borderopacity="1"
     objecttolerance="10"
     gridtolerance="10"
     guidetolerance="10"
     inkscape:pageopacity="0"
     inkscape:pageshadow="2"
     inkscape:window-width="1850"
     inkscape:window-height="1136"
     id="namedview4"
     showgrid="false"
     inkscape:zoom="0.49495261"
     inkscape:cx="-7.2252755"
     inkscape:cy="331.15682"
     inkscape:window-x="70"
     inkscape:window-y="27"
     inkscape:window-maximized="1"
     inkscape:current-layer="g10"
     inkscape:pagecheckerboard="true"
     fit-margin-top="0"
     fit-margin-left="0"
     fit-margin-right="0"
     fit-margin-bottom="0" /><g
     id="g10"
     inkscape:groupmode="layer"
     inkscape:label="ink_ext_XXXXXX"
     transform="matrix(1.3333333,0,0,-1.3333333,-157.39093,431.1822)"><path
       inkscape:connector-curvature="0"
       id="path14"
       style="fill:#282450;fill-opacity:1;fill-rule:evenodd;stroke:none;stroke-width:0.15087098"
       d="m 217.29871,285.9425 v -14.3267 c 0,-2.85147 0.17199,-6.23098 -0.34851,-8.56193 -0.86449,-3.8457 -0.1041,-5.82362 -3.14415,-7.67934 -2.31286,-1.41215 -5.95036,-1.37896 -8.90139,-2.09861 h -4.36017 c -2.7881,-0.59745 -6.69415,-0.17652 -9.79002,-0.17652 -4.38431,0 -8.95872,-0.16294 -13.09409,-0.16294 -3.17735,-0.0136 -6.96874,0.23083 -9.60294,-0.35304 -1.5072,-0.33493 -3.40818,-0.0905 -4.5382,-0.35756 h -2.79715 c -1.31861,-0.30778 -3.2573,-0.58387 -4.36771,-1.03649 h -0.87204 c -2.23289,-1.17226 -3.86079,-3.22562 -5.24126,-5.2488 -0.3651,-0.52956 -0.24893,-1.10437 -0.51899,-1.74256 -0.60047,-1.43931 -1.44836,-3.35688 -1.9221,-4.88218 v -1.40159 c -0.40283,-1.62639 -0.66232,-3.91058 -1.05006,-5.58072 v -2.62818 c -0.93238,-4.30887 -1.34577,-15.14744 -0.34851,-19.7309 0.6246,-2.84996 -0.30325,-5.80099 0.34851,-8.54684 0.24441,-1.01838 0.45865,-3.04156 0.70155,-4.02373 v -2.09862 c 1.11494,-4.47181 1.4906,-9.4762 2.7896,-13.62063 0.45262,-1.4031 0.23234,-2.51653 0.70759,-3.84118 1.45289,-4.10067 2.96461,-10.64847 6.10726,-12.91455 7.88753,-5.71952 25.4474,-2.20875 34.92663,0 0.42395,1.34879 1.27938,3.01742 1.74105,4.5382 0.72871,2.42148 0.51145,5.30311 1.05006,7.67933 v 3.15019 c 0.5024,2.26155 -0.005,5.93074 0.52051,8.3839 v 3.31162 c 0,3.7431 -0.56577,8.4714 0.17651,11.87505 v 3.31162 c 0.97765,4.29831 0.64724,9.01303 3.66466,11.18105 1.15869,0.82828 2.63873,0.58387 4.19421,1.05006 5.8372,1.75463 20.3359,1.07269 22.69854,-2.79715 1.39405,-2.27513 1.05761,-4.92745 1.74558,-8.03086 0.28213,-1.26732 0.005,-3.25881 0.35002,-4.89275 1.02291,-4.8505 0.347,-11.34399 0.347,-16.75573 0,-17.99589 -1.07269,-37.31341 -10.47044,-45.75162 -3.1532,-2.82884 -7.30367,-4.15499 -11.70608,-5.76931 -3.31615,-1.213 -7.3444,-1.71993 -11.172,-2.60705 h -2.43807 c -1.8708,-0.42093 -4.75696,-0.29873 -6.63983,-0.70608 h -11.00453 c -1.30202,-0.27609 -3.75518,-0.27609 -5.05871,0 h -7.86038 c -13.59347,0 -26.6589,1.23564 -33.87808,7.68839 -4.69057,4.17611 -6.52818,11.48882 -8.20889,18.67933 -0.51296,2.20876 -0.24591,4.65136 -0.694,6.63833 v 3.1351 c -0.38321,1.76066 -0.32136,4.52009 -0.69703,6.28528 v 4.72075 c -1.09683,5.09039 -0.35303,13.52861 -0.35303,19.37486 v 15.37677 c 0,2.55123 -0.30929,5.77383 0.17652,8.02633 0.34398,1.57962 -0.12674,3.70238 0.17651,5.06022 v 5.7693 c 0,2.11823 -0.0272,4.19422 0.34852,5.93225 0.48731,2.23138 -0.0603,4.96818 0.34851,6.81484 v 3.48814 c 0.46317,2.10918 0.1388,4.7283 0.694,6.98231 2.22686,9.08243 3.10493,16.29557 9.08696,21.653 4.62269,4.14895 10.69827,5.25786 17.81183,6.98985 2.27061,0.5537 4.69511,0.24441 6.81032,0.69703 h 3.13661 c 2.32643,0.49335 5.23673,-0.21273 7.85434,0.33946 3.57262,0.77397 9.13071,0.1916 13.10314,0.1916 h 39.46182"
       inkscape:export-xdpi="90"
       inkscape:export-ydpi="90" /><path
       inkscape:connector-curvature="0"
       id="path16"
       style="fill:#fbc94b;fill-opacity:1;fill-rule:evenodd;stroke:none;stroke-width:0.15087098"
       d="m 583.63307,199.85703 c -0.0407,3.73255 0.25346,8.78371 1.05157,12.04101 v 2.43959 c 0.89165,3.40214 0.96708,7.57825 2.09409,10.653 0.34851,0.95803 0.0407,1.51022 0.34851,2.44712 0.90523,2.75038 2.25401,5.90962 4.18969,7.67783 6.64436,6.11027 21.59416,6.98231 34.40009,6.98231 7.91318,0.0106 16.543,0.53106 23.22206,-1.0395 3.90153,-0.91428 7.45605,-0.91428 9.43849,-3.67522 2.58744,-3.61487 -0.18104,-13.86504 -2.09862,-16.40873 -3.2226,-4.2621 -8.8697,-5.23522 -14.83816,-6.81333 h -1.92813 c -0.86449,-0.23084 -2.76094,-0.47525 -3.66918,-0.69703 h -2.61912 c -2.47579,-0.55218 -5.88849,-0.42998 -8.20436,-1.03648 -1.91456,-0.50693 -3.91058,-0.1901 -5.76478,-0.70608 -1.93719,-0.54313 -4.85654,-1.24016 -6.28529,-2.44411 -0.80112,-0.67288 -1.62941,-2.50596 -2.43958,-2.96763 -1.81498,-1.21753 -5.65163,-1.24921 -8.03237,-1.9236 -2.90427,-0.81923 -6.35318,-1.55548 -9.25745,-2.4426 -0.94596,-0.28515 -1.64298,0 -2.62063,-0.35304 -1.98546,-0.71513 -4.62419,-1.58867 -6.98683,-1.73351"
       inkscape:export-xdpi="90"
       inkscape:export-ydpi="90" /><path
       inkscape:connector-curvature="0"
       id="path18"
       style="fill:#282450;fill-opacity:1;fill-rule:evenodd;stroke:none;stroke-width:0.15087098"
       d="m 448.83437,167.72453 v 41.55288 c -0.28062,0.0996 -0.4164,0.14635 -0.87807,0.17803 -1.20847,-0.72871 -4.11274,-0.1222 -5.75573,-0.52956 -6.28981,-1.5253 -14.99506,-0.62158 -19.56193,-3.83363 -1.81498,-1.29447 -2.41092,-5.88698 -3.14415,-8.38541 v -2.27513 c -0.64271,-2.51653 -0.69702,-5.66521 -0.69702,-8.72487 v -4.19874 c -0.3802,-1.76519 -0.172,-4.38431 -0.172,-6.4618 0,-4.86861 0.16294,-9.85037 0.172,-14.49267 l -0.172,-0.16294 c -2.50747,0 -5.31216,-0.99726 -7.33082,-1.74709 h -1.22658 c -1.84968,-0.59745 -4.31189,-1.08174 -6.11178,-1.74708 -1.02894,-0.38472 -1.75614,0.0362 -2.7881,-0.35304 -1.8195,-0.67289 -4.25758,-1.15869 -6.1148,-1.74105 h -1.22054 c -0.8645,-0.32136 -1.70636,-0.66534 -2.96764,-0.69703 v 0.33946 c -0.98669,1.60074 -0.53559,6.76053 -1.05458,9.08093 -1.02744,4.61514 -0.35455,10.21698 -1.39858,15.02373 -0.27609,1.29297 0.0679,3.09436 -0.16294,4.18516 -0.66534,3.02798 0.43451,6.79221 -0.17652,9.60143 v 4.37073 c -0.72418,3.28145 -0.54766,7.3263 -2.44863,9.42642 -1.12701,1.24469 -3.51077,1.85421 -5.23372,2.44864 -3.34933,1.14813 -14.00233,0.0588 -15.72528,-1.4031 -2.74736,-2.33096 -2.4426,-7.81964 -3.48512,-11.87355 v -3.48964 c -0.46167,-2.09862 0.18104,-5.19449 -0.35153,-7.68688 -0.56124,-2.62063 -0.16898,-6.30792 -0.16898,-9.24537 -0.0679,-9.37965 -0.12673,-18.74723 -0.17652,-28.1133 -6.28528,-1.6792 -13.55123,-2.72926 -19.5574,-4.89577 h -1.39707 c -1.76368,-0.63818 -4.01467,-0.88259 -5.93677,-1.56604 v 0.87355 c -0.5024,0.80414 -0.35304,4.95912 -0.35304,6.28528 v 15.36168 16.93678 c 0,2.76999 -0.36963,6.28529 0.17652,8.72487 v 4.37526 c 0,3.68729 -0.21725,8.16363 0.52352,11.52051 0.11919,2.56179 0.23235,5.12659 0.35002,7.68838 0.37115,1.66562 0.21273,3.62392 0.69703,5.41174 1.01838,3.73406 1.98093,7.72007 4.18969,10.29544 3.95885,4.61967 11.04224,5.67878 17.98231,7.33384 2.40337,0.57633 4.66946,-0.009 7.16335,0.52956 2.23138,0.47524 8.56646,0.67439 10.83254,0.16746 h 4.36168 c 3.86531,-0.84035 8.10931,-0.39679 11.52503,-1.732 1.58868,-0.63365 4.10068,-1.47099 5.40722,-2.45165 0.31683,-0.23687 0.73776,-1.15115 1.05006,-1.39405 1.98245,-1.5253 4.08559,-2.49842 7.16336,-2.97367 3.811,-0.58387 8.45782,2.56481 10.81895,3.66919 3.97395,1.85571 8.33563,2.96009 12.92965,4.18516 h 1.56906 c 3.24825,0.77548 7.10904,0.87505 11.16747,0.87505 9.34042,0 17.60664,-1.42573 23.39858,-5.06021 0.64422,-0.3983 1.26731,-0.34399 1.92813,-0.69552 1.32163,-0.72116 3.03703,-2.03223 4.01317,-3.15018 2.08202,-2.36264 2.67946,-5.95186 3.84117,-9.25443 0.49335,-1.39405 -0.08,-2.51955 0.35002,-4.00864 0.64271,-2.1997 0.51145,-5.51735 1.04856,-7.86943 v -5.39817 c 0.65779,-3.02798 0.34851,-7.11356 0.34851,-10.66054 0.0634,-5.18091 0.11919,-10.36333 0.17802,-15.54424 -0.17802,-0.0543 -0.35454,-0.10862 -0.52653,-0.17652 -0.82829,-0.49787 -1.74106,-0.12975 -2.80017,-0.51447 -1.30805,-0.47524 -3.18187,-0.97311 -4.53367,-1.39404 h -1.22206 c -2.29022,-0.84186 -5.22164,-1.2809 -7.50281,-2.10013 h -1.40159 c -2.7881,-1.01385 -6.38185,-1.88739 -9.43095,-2.43958"
       inkscape:export-xdpi="90"
       inkscape:export-ydpi="90" /><path
       inkscape:connector-curvature="0"
       id="path20"
       style="fill:#fbc94b;fill-opacity:1;fill-rule:evenodd;stroke:none;stroke-width:0.15087098"
       d="m 578.40388,198.45393 c -2.88013,-0.15389 -6.00165,-1.35633 -8.5574,-2.09862 -3.00384,-0.87354 -6.0273,-1.08174 -8.73241,-2.08654 -1.00481,-0.37567 -1.58868,-0.0543 -2.62214,-0.36662 -2.89522,-0.82828 -6.35318,-1.55699 -9.25594,-2.43958 -0.93389,-0.28967 -1.64298,0.009 -2.61761,-0.34399 -1.79084,-0.66081 -4.25305,-1.21149 -6.11329,-1.74557 h -1.22507 c -3.60733,-1.32616 -7.94185,-2.13181 -11.87355,-2.96009 -0.0543,0.10862 -0.10863,0.22178 -0.17199,0.34398 -0.47977,0.77397 -0.19915,1.58867 -0.52956,2.61611 -1.00027,3.18036 -1.43026,6.69716 -2.43807,10.13098 -1.27185,4.33905 -2.11522,9.32232 -3.48512,13.60706 -0.49788,1.54642 -0.64121,3.07173 -1.05007,4.37525 v 1.22659 c -0.66383,1.80139 -1.16623,4.25305 -1.75463,6.10876 v 1.22658 c -0.49787,1.34879 -0.99574,3.0823 -1.21903,4.70567 h 0.35454 c 0.89919,0.56275 2.80469,-0.0754 4.01317,0.17652 1.67316,0.35304 4.14443,0.17652 6.10877,0.17652 3.39459,0 7.20409,0.11013 10.29845,-0.17652 2.85901,-0.12221 5.71047,-0.22933 8.56193,-0.35304 1.71389,-0.37416 3.76876,-0.19915 5.58373,-0.69552 4.57894,-1.25826 9.30271,-2.18612 12.75162,-4.5382 0.65931,-0.45412 1.4378,-0.44506 2.09107,-0.87505 0.89467,-0.59745 1.65053,-1.57056 2.45165,-2.26759 0.28968,-0.261 0.7966,-0.22932 1.05007,-0.51447 2.05788,-2.50747 3.89096,-5.58072 5.23522,-8.73845 0.59292,-1.4031 0.47524,-2.57385 1.05006,-4.02222 1.11645,-2.86051 2.06693,-6.68358 2.0956,-10.47195"
       inkscape:export-xdpi="90"
       inkscape:export-ydpi="90" /><path
       inkscape:connector-curvature="0"
       id="path22"
       style="fill:#282450;fill-opacity:1;fill-rule:evenodd;stroke:none;stroke-width:0.15087098"
       d="m 513.44185,230.40991 c -0.009,-2.88163 1.64299,-7.76533 2.44411,-10.30298 0.45261,-1.43931 0.17954,-2.8062 0.69703,-4.19119 1.19339,-3.18942 1.76368,-7.22069 2.79714,-10.4795 0.45111,-1.42573 0.18558,-2.80469 0.69703,-4.18516 0.8313,-2.24496 1.25524,-5.27143 2.09409,-7.51187 v -1.22658 c 0.7287,-1.95378 1.58263,-4.69661 1.7501,-6.98231 -1.49664,-0.0211 -2.88616,-0.62762 -4.02222,-1.05006 h -1.21602 c -1.385,-0.42847 -3.38554,-0.90372 -4.71623,-1.39254 h -1.22205 c -0.89165,-0.33041 -2.36566,-0.78302 -3.32067,-1.05006 h -1.22206 c -3.12755,-1.14511 -7.16788,-1.64299 -10.30901,-2.79112 -1.30202,-0.47675 -3.05816,-0.22328 -4.35112,-0.69702 -1.31258,-0.4843 -3.19092,-0.97312 -4.54423,-1.4031 -1.02744,-0.32135 -1.75916,0.0317 -2.79715,-0.34399 -1.67316,-0.61555 -3.62845,-1.32615 -5.76327,-1.4031 -0.20066,17.34413 0.66835,35.28118 8.21643,44.88412 3.00535,3.83212 7.33082,5.8191 12.38952,7.67481 3.51982,1.29447 7.69292,2.43053 12.39858,2.45165"
       inkscape:export-xdpi="90"
       inkscape:export-ydpi="90" /><path
       inkscape:connector-curvature="0"
       id="path24"
       style="fill:#fab235;fill-opacity:1;fill-rule:evenodd;stroke:none;stroke-width:0.15087098"
       d="m 608.96129,202.29661 c -0.16898,-1.3352 -0.57935,-2.66136 -0.87505,-3.84268 -0.48883,-1.90852 -0.30778,-4.13085 -0.70004,-5.9413 v -4.01317 c -0.43904,-2.03223 -0.26705,-6.50254 0.17199,-8.55589 0.55068,-2.54369 -0.0724,-4.89727 0.52805,-7.33686 2.00205,-8.16212 2.98724,-15.11274 10.81896,-17.46482 1.92964,-0.57633 3.62542,-0.23234 5.76176,-0.69703 1.88287,-0.40735 4.42957,0.13579 6.64285,-0.33946 3.031,-0.66534 7.0502,0.52956 10.2894,-0.17802 3.23015,-0.7091 6.97627,-0.45111 9.79303,-1.22508 2.10767,-0.57481 3.69634,-0.54313 5.22919,-1.57056 5.61089,-3.76423 1.33068,-17.88274 -2.08503,-20.77946 -4.81128,-4.07201 -17.7711,-3.84118 -26.72982,-3.84118 -13.80167,0 -32.15513,0.7966 -37.8837,8.38541 -2.37924,3.14415 -3.031,8.0716 -4.19421,12.39405 -0.35757,1.35633 -0.0136,2.27061 -0.33946,3.66466 -0.50542,2.10917 -0.56879,4.9365 -1.05912,7.15883 v 2.27664 c -0.42545,1.96283 -0.26251,4.79166 -0.69702,6.80428 v 3.67522 c -0.2248,1.01838 0.092,2.75038 -0.17199,4.01317 -0.3802,1.76519 -0.17954,4.38431 -0.17954,6.4618 0.0634,4.94555 0.11617,9.88356 0.17954,14.83364 0.17199,0.0679 0.35454,0.12069 0.52653,0.17651 1.48307,1.07119 5.33028,1.13908 7.32932,1.74558 3.38403,1.02743 6.87368,1.42573 10.48402,2.43959 2.19668,0.62007 4.58346,1.63845 7.16034,1.75613"
       inkscape:export-xdpi="90"
       inkscape:export-ydpi="90" /><path
       inkscape:connector-curvature="0"
       id="path26"
       style="fill:#fab235;fill-opacity:1;fill-rule:evenodd;stroke:none;stroke-width:0.15087098"
       d="m 578.40388,195.14231 h 0.33795 c 0.0332,-1.29447 0.10561,-3.04156 0.35907,-4.19874 0.36059,-1.69277 -0.14181,-3.9332 0.16596,-5.41325 v -22.87807 c 0,-7.03512 0.15842,-14.22714 -1.21753,-20.08093 l -0.34247,-3.66617 c -0.98821,-4.00864 -1.65204,-8.00974 -3.50323,-11.00453 v -0.69249 c -1.47552,-2.24496 -4.44315,-5.43438 -6.6338,-6.98231 -4.25305,-3.00385 -16.00439,-4.5382 -23.4031,-4.5382 v 0.33946 c -1.06364,1.51625 -0.76794,4.03127 -1.38952,5.9413 -1.08929,3.33877 -1.71842,7.32629 -2.79564,10.65149 -0.32588,1.0048 -0.0226,1.58867 -0.35455,2.6161 -2.22535,7.0502 -3.02949,15.244 -5.58374,22.18105 v 1.22658 c -0.43752,1.39405 -0.95501,3.31162 -1.39706,4.70567 v 1.22658 c -0.99575,2.71417 -1.16322,5.77836 -2.08956,8.73845 -0.94144,2.98121 -1.98396,6.51461 -2.45317,9.77342 h 0.35153 c 0.74229,0.52956 1.77425,0.38925 2.79715,0.69702 2.0096,0.60651 4.48841,1.14964 6.45275,1.74558 0.94596,0.28515 1.65657,0 2.63421,0.35304 1.81347,0.67439 4.23495,1.20395 6.09971,1.74709 h 1.22659 c 6.48745,2.38527 14.13057,3.2226 20.78247,5.23522 2.48032,0.75134 5.05871,1.05911 7.32932,1.74256 0.87807,0.26704 1.93416,0.0679 2.62666,0.53408"
       inkscape:export-xdpi="90"
       inkscape:export-ydpi="90" /><path
       inkscape:connector-curvature="0"
       id="path28"
       style="fill:#f68712;fill-opacity:1;fill-rule:evenodd;stroke:none;stroke-width:0.15087098"
       d="m 523.92135,182.20512 h 0.86902 l 0.17199,-0.16746 c 0.0151,-2.43808 1.41215,-6.59306 2.10012,-8.72336 0.32136,-1.0048 0.0226,-1.63394 0.34399,-2.62968 0.91277,-2.8047 1.56604,-6.26266 2.45316,-9.06886 0.6231,-1.98999 0.40132,-3.62392 1.0395,-5.58826 1.54341,-4.75093 2.29928,-10.27582 3.84118,-15.02222 0.32739,-0.99575 0.0287,-1.57962 0.35455,-2.62063 1.03497,-3.25731 1.73199,-7.20409 2.80016,-10.48403 0.31683,-0.99122 0.0226,-1.6113 0.34399,-2.60705 0.93691,-2.91332 1.95528,-6.47085 2.43958,-9.60595 -1.72898,-0.57482 -4.73433,-0.18105 -6.81032,-0.18105 h -14.66164 c -1.43025,0.86449 -5.57468,-0.25346 -7.51036,0.18105 -5.99712,1.34426 -11.93238,1.31257 -17.10575,3.32067 -4.59251,1.76971 -8.51666,6.24606 -10.48855,10.65149 -1.4378,3.23618 -1.5932,7.45303 -2.4426,11.16898 v 1.74256 c -0.5884,2.59649 -0.46166,6.02126 -1.04252,8.72788 v 6.29434 c -0.33342,1.52531 0.20066,3.83212 -0.17953,5.58826 -0.51749,2.41243 -0.172,5.83267 -0.172,8.56193 l 0.172,0.16747 c 1.72898,-0.0226 3.20299,0.62762 4.54725,1.05006 1.98093,0.6065 4.12179,0.83582 5.93224,1.38801 1.89042,0.5884 3.43534,0.48882 5.41175,1.05006 4.27115,1.22659 9.17597,2.28872 13.43807,3.50323 3.61186,1.01687 7.10452,1.41517 10.48101,2.42902 1.24469,0.38925 2.70663,0.22178 3.67371,0.87354"
       inkscape:export-xdpi="90"
       inkscape:export-ydpi="90" /><path
       inkscape:connector-curvature="0"
       id="path30"
       style="fill:#f68712;fill-opacity:1;fill-rule:evenodd;stroke:none;stroke-width:0.15087098"
       d="m 476.25215,170.68462 v -11.34399 c 0,-1.96887 0.18558,-4.45221 -0.17802,-6.12235 -0.52353,-2.4079 0.30476,-5.47511 -0.17652,-7.6748 v -3.49418 c -0.0724,-2.11672 -0.1041,-5.04361 -0.52805,-6.97627 v -2.62968 c -1.11946,-5.00439 -1.30051,-9.40228 -5.75724,-11.00453 -1.64751,-0.58387 -4.14442,-0.33946 -6.28528,-0.33946 -3.64203,0 -8.30847,-0.0362 -10.30298,1.56604 -2.43808,1.96736 -2.6327,6.23097 -3.48814,9.77795 v 2.27664 c -0.27609,1.19037 -0.0226,3.14415 -0.35304,4.71472 -0.54766,2.56179 -0.34851,6.00919 -0.34851,9.08243 v 15.71472 c 2.2163,0.26705 4.76903,1.14059 6.80881,1.73804 3.4308,1.01385 6.94761,1.44232 10.12344,2.45165 h 1.23111 c 2.83788,0.89165 6.08161,1.85571 9.25442,2.26307"
       inkscape:export-xdpi="90"
       inkscape:export-ydpi="90" /><path
       inkscape:connector-curvature="0"
       id="path32"
       style="fill:#f68712;fill-opacity:1;fill-rule:evenodd;stroke:none;stroke-width:0.15087098"
       d="m 418.79747,156.89652 c 0.0317,-2.95858 0.27156,-6.99136 -0.34399,-9.77342 -0.64271,-2.92841 0.26252,-7.014 -0.34851,-9.78851 v -4.0177 c -0.55219,-2.31134 -0.33041,-5.72404 -1.39857,-7.67933 -0.85092,-1.55548 -3.21205,-3.1351 -4.88672,-3.8457 -3.6737,-1.53436 -9.32081,-0.56124 -11.87807,1.05006 -0.89617,0.56577 -1.76821,0.9867 -2.44411,1.74709 -1.28391,1.4559 -2.1484,4.32999 -2.79111,6.28528 v 1.04855 c -1.97792,5.25786 -2.7021,12.34879 -3.4987,18.50282 0.0679,0.0679 0.12673,0.12221 0.17803,0.18557 2.32945,0.0679 4.98025,1.10438 6.98683,1.74709 h 1.22508 c 1.82855,0.57482 4.26663,1.15869 6.10876,1.74708 1.03045,0.32136 1.62488,0.0226 2.61912,0.33946 2.89673,0.93993 7.13318,2.35208 10.47196,2.45166"
       inkscape:export-xdpi="90"
       inkscape:export-ydpi="90" /><path
       inkscape:connector-curvature="0"
       id="path34"
       style="fill:#f68712;fill-opacity:1;fill-rule:evenodd;stroke:none;stroke-width:0.15087098"
       d="m 359.95929,143.10087 c 0.54314,-0.21725 0.38321,-0.0634 0.52352,-0.69249 -0.93087,-1.57962 0.13579,-5.23523 -0.35152,-7.33535 -1.14964,-4.88219 -0.26705,-9.36758 -3.49418,-12.23111 -1.89041,-1.67919 -5.31669,-1.74256 -8.9044,-1.74256 -4.15046,0 -9.20011,-0.0905 -10.99699,2.27513 -1.4378,1.87986 -1.41517,4.24099 -2.0956,6.97779 -0.44808,1.79234 -1.02139,4.72075 -0.70155,6.63832 2.87561,0.15841 6.21891,1.28542 8.73543,2.10012 0.99123,0.31231 1.61885,0.0226 2.6146,0.34399 2.37471,0.76039 5.30462,1.34879 7.68838,2.08655 1.83309,0.58688 5.65163,0.67439 6.98231,1.57961"
       inkscape:export-xdpi="90"
       inkscape:export-ydpi="90" /><path
       inkscape:connector-curvature="0"
       id="path36"
       style="fill:#282450;fill-opacity:1;fill-rule:evenodd;stroke:none;stroke-width:0.15087098"
       d="m 260.77067,192.16864 c -0.31984,1.48005 0.23536,3.65712 0.52956,4.70567 0.49335,1.77877 0.45714,3.40365 1.39857,4.71623 2.48334,3.47908 7.51489,4.67398 11.87355,6.28528 h 1.22055 c 1.07722,0.39679 2.86504,0.74983 4.01467,1.05006 1.08929,0.28817 2.0775,-0.16294 2.79112,0.35153 4.53518,-0.0226 10.35729,0.26855 13.27664,-1.40159 0.91428,-0.5205 1.51173,-1.64298 2.44411,-2.08654 0.0136,-0.68797 0.0392,-0.8826 0.34852,-1.22658 -0.1901,-3.90002 -5.41627,-5.44796 -8.02785,-7.15883 -3.17131,-2.06241 -7.20861,-3.68729 -10.83254,-5.23523 -2.00507,-0.85996 -4.05541,-0.92785 -6.10424,-1.74708 -1.51172,-0.60499 -7.91318,-2.69154 -10.13098,-2.09862 -0.58387,0.15842 -1.28693,0.54314 -1.92512,0.69703 -0.25648,0.95048 -0.61857,1.99904 -0.87656,3.14867 m 22.70609,-63.91045 c 2.81374,0.88259 6.26869,1.54341 9.0779,2.43958 1.97189,0.62762 3.6028,0.42847 5.58826,1.04855 4.24401,1.33521 9.20766,2.15444 13.44412,3.48965 h 1.22658 c 2.74585,0.86449 5.72404,1.22507 8.73241,2.09862 1.81951,0.52955 3.91359,1.42573 6.10424,1.39404 -0.095,1.12701 -0.53861,1.45742 -1.04553,2.10013 -3.10795,3.94075 -6.01825,3.58771 -11.52504,4.89123 -1.69579,0.3983 -2.98121,-0.0317 -4.71924,0.34399 -1.81951,0.40735 -4.39487,0.28515 -6.27774,0.70608 h -3.31615 c -3.03251,0.65176 -6.7379,-0.17652 -9.96352,0.5205 -2.31285,0.49335 -4.84597,-0.0226 -7.32629,0.52956 -6.87218,1.51173 -14.88192,1.03648 -19.73845,4.5382 -0.58689,0.42093 -0.8826,1.22658 -1.39405,1.74708 -0.008,2.86806 1.71087,3.63298 3.32369,4.88219 3.15169,2.43807 7.04416,4.21684 10.64093,6.28528 0.69702,0.3983 1.76066,0.30778 2.45316,0.69703 0.42093,0.25346 1.09532,0.8494 1.57509,1.05911 h 0.87204 c 4.73433,2.47429 10.4629,4.18516 15.54423,6.28529 0.71966,0.29721 1.22206,0 1.91456,0.34398 1.44836,0.73625 3.44287,1.36539 4.89123,2.09409 0.7091,0.35757 1.20848,0.0453 1.91757,0.34399 2.61761,1.10437 5.55809,2.13181 7.86038,3.50322 0.49788,0.28515 0.89165,0.0438 1.39405,0.34399 1.40763,0.82677 2.87711,1.90852 4.18969,2.79111 h 0.70155 c 0.5205,0.35304 2.81072,2.02318 3.14566,2.4426 3.3433,4.41751 3.32972,11.02264 3.31312,18.85586 -0.005,2.56179 -0.009,6.17213 -0.52654,8.39446 -0.34851,1.49362 0.14182,2.99479 -0.34851,4.36168 -1.09834,3.14113 -1.67316,6.47538 -3.48814,8.89384 -0.11315,0.15691 -0.57934,0.22028 -0.69702,0.36511 -0.21725,0.24441 -0.14936,0.59745 -0.35153,0.87355 -1.25826,1.71087 -4.92895,3.75668 -6.98231,4.70717 -1.20847,0.55973 -2.20422,0.51447 -3.4987,1.04855 -1.98697,0.81471 -4.5382,1.45742 -6.80579,2.0956 -1.23563,0.34248 -2.02167,0.0136 -3.32218,0.34248 -1.8542,0.47675 -4.46578,0.60801 -6.45727,1.06062 h -2.27061 c -3.31765,0.73323 -7.47566,0.519 -11.34852,0.519 -7.03662,0 -13.97367,-0.14484 -19.73392,-1.57962 -1.33521,-0.3289 -2.19819,0.0468 -3.48965,-0.34248 -4.72829,-1.42573 -10.86874,-2.38527 -14.13963,-5.23522 -3.37498,-2.93746 -5.51584,-7.42285 -6.99136,-12.2281 -0.60197,-1.96735 -0.46619,-3.66465 -1.04553,-5.75572 -1.17981,-4.28474 -0.70155,-9.82774 -1.75011,-14.49418 v -6.11631 c -1.04704,-4.77356 -0.34096,-11.23687 -0.34096,-16.5943 0.006,-13.18612 0.32739,-27.57921 4.18667,-37.01468 2.03072,-4.95008 6.32149,-9.76437 11.17652,-11.87355 1.5932,-0.68194 3.13661,-0.82828 4.88671,-1.39405 1.27637,-0.41489 5.39364,-1.79989 6.98231,-1.40159 7.35345,1.8542 15.34961,3.33877 22.53107,5.59279 h 1.22055"
       inkscape:export-xdpi="90"
       inkscape:export-ydpi="90" /><path
       inkscape:connector-curvature="0"
       id="path38"
       style="fill:#f68712;fill-opacity:1;fill-rule:evenodd;stroke:none;stroke-width:0.15087098"
       d="m 328.70939,135.58901 c -1.95077,-0.18557 -3.93321,-0.85997 -5.59279,-1.38952 -2.46674,-0.7966 -5.04965,-1.02743 -7.33535,-1.75614 -1.89946,-0.61103 -3.52585,-0.47525 -5.42079,-1.05006 -3.43534,-1.01687 -7.38514,-1.75463 -10.82349,-2.79564 -1.88287,-0.56124 -3.50322,-0.42999 -5.41174,-1.03649 -3.84721,-1.22658 -8.30846,-2.02167 -12.21904,-3.14867 l -2.44713,-0.3455 c -2.91483,-0.92635 -6.58401,-2.09861 -9.77342,-2.45165 0.98066,-0.6065 3.2573,-0.33946 4.71472,-0.33946 2.88314,-0.0136 6.12234,-0.17652 9.25292,-0.17652 h 15.01468 c 2.45316,0 5.53394,-0.27609 7.68235,0.17652 h 3.49417 c 1.68824,0.15389 4.01317,0.18557 5.58373,0.51598 3.96791,0.85091 9.02209,0.25799 11.52504,2.44411 2.78206,2.43807 1.80592,7.05925 1.75614,11.35304"
       inkscape:export-xdpi="90"
       inkscape:export-ydpi="90" /><path
       inkscape:connector-curvature="0"
       id="path50"
       style="fill:#282450;fill-opacity:1;fill-rule:nonzero;stroke:none;stroke-width:0.15087098"
       d="m 285.45468,81.708454 c -5.76931,2.263065 -8.9376,3.281444 -14.81855,3.281444 -6.33206,0 -13.79263,-2.267591 -13.79263,-10.517216 0,-15.156499 33.92334,-11.641205 33.92334,-37.655889 0,-16.855306 -13.01413,-23.51626 -28.83748,-23.51626 -5.543,0 -10.96983,1.578111 -16.17789,3.279936 l 1.14058,10.517216 c 3.83816,-1.593198 10.62434,-3.856263 16.38912,-3.856263 6.44973,0 15.49445,3.620904 15.49445,12.900978 0,17.630783 -33.91882,12.76972 -33.91882,37.313412 0,14.018931 11.07544,21.485536 25.32671,21.485536 5.19902,0 11.42094,-0.906734 16.85078,-2.828831 l -1.57961,-10.404063"
       inkscape:export-xdpi="90"
       inkscape:export-ydpi="90" /><path
       inkscape:connector-curvature="0"
       id="path52"
       style="fill:#282450;fill-opacity:1;fill-rule:nonzero;stroke:none;stroke-width:0.15087098"
       d="M 335.76713,63.735194 H 320.5005 V 32.174493 c 0,-6.670006 4.07653,-10.280348 8.93759,-10.280348 3.27994,0 5.65163,1.013853 7.22974,2.032232 v -9.047733 c -2.37018,-0.687972 -5.65163,-1.578111 -9.04019,-1.578111 -10.96983,0 -17.75601,5.189962 -17.75601,16.733101 v 33.70156 h -13.00507 v 8.586068 h 13.00507 v 13.352082 l 10.62887,3.37951 V 72.321262 h 15.26663 v -8.586068"
       inkscape:export-xdpi="90"
       inkscape:export-ydpi="90" /><path
       inkscape:connector-curvature="0"
       id="path54"
       style="fill:#282450;fill-opacity:1;fill-rule:nonzero;stroke:none;stroke-width:0.15087098"
       d="m 400.10455,14.644794 h -10.29392 v 9.157868 h -0.22329 c -3.16075,-6.550818 -10.84914,-10.502129 -18.88151,-10.502129 -14.92868,0 -21.59869,9.266496 -21.59869,24.751894 v 34.268835 h 10.6349 V 42.472947 c 0,-13.456183 2.9269,-20.017562 12.213,-20.578802 12.09382,0 17.52518,9.719108 17.52518,23.736531 v 26.690586 h 10.62433 V 14.644794"
       inkscape:export-xdpi="90"
       inkscape:export-ydpi="90" /><path
       inkscape:connector-curvature="0"
       id="path56"
       style="fill:#282450;fill-opacity:1;fill-rule:nonzero;stroke:none;stroke-width:0.15087098"
       d="m 441.60312,21.894145 c 11.9867,0 16.96846,11.873546 16.96846,21.484027 0,10.737488 -5.54752,21.707317 -17.08161,21.707317 -11.53408,0 -16.05871,-10.861202 -15.83391,-21.376909 -0.2248,-9.044716 4.52161,-21.814435 15.94706,-21.814435 z m 17.41655,0.896173 h -0.22631 c -2.82883,-4.299823 -9.3887,-9.489785 -19.67508,-9.489785 -17.41202,0 -24.76547,15.483889 -24.76547,31.204646 0,15.483889 8.14703,29.172413 24.88013,29.172413 10.06159,0 15.8324,-3.954329 19.11385,-9.280074 h 0.22479 v 35.059399 h 10.62585 V 14.644794 h -10.17776 v 8.145524"
       inkscape:export-xdpi="90"
       inkscape:export-ydpi="90" /><path
       inkscape:connector-curvature="0"
       id="path58"
       style="fill:#282450;fill-opacity:1;fill-rule:nonzero;stroke:none;stroke-width:0.15087098"
       d="m 488.6447,72.321262 h 10.63338 V 14.644794 H 488.6447 Z m 11.30476,12.88589 h -11.99273 v 11.9867 h 11.99273 v -11.9867"
       inkscape:export-xdpi="90"
       inkscape:export-ydpi="90" /><path
       inkscape:connector-curvature="0"
       id="path60"
       style="fill:#282450;fill-opacity:1;fill-rule:nonzero;stroke:none;stroke-width:0.15087098"
       d="m 544.27988,21.894145 c 12.43026,0 17.97779,11.298727 17.97779,21.592655 0,10.96832 -6.6685,21.598689 -17.97779,21.598689 -11.42546,0 -18.08641,-10.630369 -18.08641,-21.598689 0,-10.293928 5.52942,-21.592655 18.08641,-21.592655 z m 0,51.783447 c 17.52517,0 29.29009,-12.661093 29.29009,-30.190792 0,-16.502269 -11.9867,-30.186267 -29.29009,-30.186267 -17.41655,0 -29.39872,13.683998 -29.39872,30.186267 0,17.529699 11.75587,30.190792 29.39872,30.190792"
       inkscape:export-xdpi="90"
       inkscape:export-ydpi="90" /><path
       inkscape:connector-curvature="0"
       id="path62"
       style="fill:#282450;fill-opacity:1;fill-rule:nonzero;stroke:none;stroke-width:0.15087098"
       d="m 277.75724,271.59316 h -12.51626 c 1.66109,-5.67878 4.74338,-10.78425 9.2499,-15.29982 7.1709,-7.1709 15.80072,-10.74654 25.90002,-10.74654 2.01866,0 3.97847,0.15389 5.87492,0.42998 7.59635,1.14964 14.26183,4.58346 19.95419,10.31656 4.5382,4.51557 7.6386,9.62104 9.30724,15.29982 h -5.0753 -7.42587 -45.26884"
       inkscape:export-xdpi="90"
       inkscape:export-ydpi="90" /><path
       inkscape:connector-curvature="0"
       id="path64"
       style="fill:#282450;fill-opacity:1;fill-rule:nonzero;stroke:none;stroke-width:0.15087098"
       d="m 270.86092,288.59331 h -6.53271 c -0.24894,-1.43931 -0.40886,-2.89673 -0.47675,-4.40694 h 7.76533 3.90605 56.27337 5.1447 c -0.0875,1.51021 -0.24441,2.96763 -0.47676,4.40694"
       inkscape:export-xdpi="90"
       inkscape:export-ydpi="90" /><path
       inkscape:connector-curvature="0"
       id="path66"
       style="fill:#282450;fill-opacity:1;fill-rule:nonzero;stroke:none;stroke-width:0.15087098"
       d="m 263.85146,280.09474 c 0.0679,-1.50267 0.22781,-2.96763 0.47675,-4.41599 h 6.79221 5.14923 55.07394 5.12056 c 0.23235,1.44836 0.38925,2.91332 0.47676,4.41599"
       inkscape:export-xdpi="90"
       inkscape:export-ydpi="90" /><path
       inkscape:connector-curvature="0"
       id="path68"
       style="fill:#282450;fill-opacity:1;fill-rule:nonzero;stroke:none;stroke-width:0.15087098"
       d="m 335.52725,292.68795 c -1.65959,5.70141 -4.75998,10.82801 -9.30724,15.35263 -5.68331,5.69387 -12.31258,9.11411 -19.89988,10.2547 -1.92511,0.28514 -3.897,0.43903 -5.9247,0.43903 -10.10836,0 -18.73365,-3.56659 -25.90455,-10.69373 -4.51104,-4.52462 -7.58881,-9.65122 -9.2499,-15.35263"
       inkscape:export-xdpi="90"
       inkscape:export-ydpi="90" /><path
       inkscape:connector-curvature="0"
       id="path76"
       style="fill:#f68712;fill-opacity:1;fill-rule:nonzero;stroke:none;stroke-width:0.15087098"
       d="m 261.67137,282.14055 c 0,19.30847 14.50172,35.34908 33.3621,38.16282 -0.46015,0.0226 -0.93238,0.0453 -1.40611,0.0453 -21.16871,0 -38.33179,-17.10877 -38.33179,-38.20808 0,-21.10986 17.16308,-38.20958 38.33179,-38.20958 0.47826,0 0.94596,0.0136 1.41064,0.0453 -18.86491,2.8062 -33.36663,18.85586 -33.36663,38.16432"
       inkscape:export-xdpi="90"
       inkscape:export-ydpi="90" /><path
       inkscape:connector-curvature="0"
       id="path78"
       style="fill:#f68712;fill-opacity:1;fill-rule:nonzero;stroke:none;stroke-width:0.15087098"
       d="m 464.34542,313.73445 h 7.62016 v 9.65221 h -7.62016 z"
       inkscape:export-xdpi="90"
       inkscape:export-ydpi="90" /><path
       inkscape:connector-curvature="0"
       id="path80"
       style="fill:#282450;fill-opacity:1;fill-rule:nonzero;stroke:none;stroke-width:0.15087098"
       d="m 393.0634,285.88668 c -0.0588,4.18667 -1.22658,7.51187 -3.48964,9.99671 -2.28872,2.48334 -5.30613,3.71897 -9.06131,3.71897 -4.25457,0 -7.65821,-1.19037 -10.22755,-3.59676 -2.54217,-2.39885 -4.01467,-5.79345 -4.40845,-10.15513 z m 7.62502,-2.23591 v -3.71897 h -35.05638 c 0.33192,-5.25785 1.91455,-9.25744 4.74339,-11.99575 2.83788,-2.76395 6.78315,-4.12179 11.83733,-4.12179 2.9269,0 5.76478,0.35303 8.51516,1.07269 2.73831,0.71815 5.46606,1.78631 8.17721,3.22562 v -7.21314 c -2.7368,-1.14964 -5.53848,-2.03072 -8.40653,-2.6508 -2.8741,-0.60651 -5.79194,-0.90523 -8.7475,-0.90523 -7.39721,0 -13.26307,2.15293 -17.59307,6.47086 -4.31793,4.29831 -6.47991,10.13098 -6.47991,17.47538 0,7.60239 2.04883,13.62063 6.15403,18.09547 4.1052,4.46125 9.63915,6.68358 16.58827,6.68358 6.24002,0 11.1901,-2.00055 14.81402,-6.02277 3.63599,-4.03127 5.45398,-9.48827 5.45398,-16.39515"
       inkscape:export-xdpi="90"
       inkscape:export-ydpi="90" /><path
       inkscape:connector-curvature="0"
       id="path82"
       style="fill:#282450;fill-opacity:1;fill-rule:nonzero;stroke:none;stroke-width:0.15087098"
       d="m 440.23774,303.17197 v -7.12564 c -2.16349,1.18434 -4.31793,2.07599 -6.49952,2.67344 -2.15896,0.58839 -4.35263,0.88259 -6.5659,0.88259 -4.9365,0 -8.77315,-1.55699 -11.51448,-4.69209 -2.72925,-3.1366 -4.10972,-7.54354 -4.10972,-13.1997 0,-5.6652 1.38047,-10.06309 4.10972,-13.1997 2.74133,-3.14113 6.57798,-4.70567 11.51448,-4.70567 2.21327,0 4.40694,0.29873 6.5659,0.89165 2.18159,0.59745 4.33603,1.49362 6.49952,2.67344 v -7.04568 c -2.12879,-0.99424 -4.31793,-1.73652 -6.60664,-2.22987 -2.28117,-0.49788 -4.70717,-0.75134 -7.28254,-0.75134 -6.98533,0 -12.53738,2.19366 -16.65616,6.58401 -4.11727,4.39336 -6.17062,10.31656 -6.17062,17.78316 0,7.56618 2.07146,13.52106 6.24304,17.86011 4.14443,4.33 9.84735,6.49801 17.08614,6.49801 2.35359,0 4.63476,-0.24441 6.88273,-0.71965 2.24044,-0.48882 4.40393,-1.20395 6.50405,-2.17707"
       inkscape:export-xdpi="90"
       inkscape:export-ydpi="90" /><path
       inkscape:connector-curvature="0"
       id="path84"
       style="fill:#282450;fill-opacity:1;fill-rule:nonzero;stroke:none;stroke-width:0.15087098"
       d="m 447.13255,258.54735 h 7.62016 v 64.47668 h -7.62016 z"
       inkscape:export-xdpi="90"
       inkscape:export-ydpi="90" /><path
       inkscape:connector-curvature="0"
       id="path86"
       style="fill:#282450;fill-opacity:1;fill-rule:nonzero;stroke:none;stroke-width:0.15087098"
       d="m 464.34542,258.54735 h 7.62016 v 46.40399 h -7.62016 z"
       inkscape:export-xdpi="90"
       inkscape:export-ydpi="90" /><path
       inkscape:connector-curvature="0"
       id="path88"
       style="fill:#282450;fill-opacity:1;fill-rule:nonzero;stroke:none;stroke-width:0.15087098"
       d="m 514.87211,281.71057 c 0,5.61089 -1.15869,10.00426 -3.46249,13.1997 -2.30682,3.19093 -5.48265,4.78262 -9.50638,4.78262 -4.02675,0 -7.20409,-1.59169 -9.51996,-4.78262 -2.29927,-3.19544 -3.44891,-7.58881 -3.44891,-13.1997 0,-5.61089 1.14964,-10.00878 3.44891,-13.1997 2.31587,-3.19545 5.49321,-4.78261 9.51996,-4.78261 4.02373,0 7.19956,1.58716 9.50638,4.78261 2.3038,3.19092 3.46249,7.58881 3.46249,13.1997 m -25.93774,-16.20354 v -24.61309 h -7.66425 v 64.0568 h 7.66425 v -7.03512 c 1.60225,2.75793 3.61939,4.8143 6.06803,6.15252 2.43958,1.33521 5.36196,2.00961 8.75655,2.00961 5.64258,0 10.21699,-2.24497 13.74586,-6.71527 3.51529,-4.47634 5.27294,-10.36182 5.27294,-17.65191 0,-7.29008 -1.75765,-13.17707 -5.27294,-17.6519 -3.52887,-4.47484 -8.10328,-6.71527 -13.74586,-6.71527 -3.39459,0 -6.31697,0.67439 -8.75655,2.0096 -2.44864,1.33521 -4.47483,3.38856 -6.06803,6.15403"
       inkscape:export-xdpi="90"
       inkscape:export-ydpi="90" /><path
       inkscape:connector-curvature="0"
       id="path90"
       style="fill:#282450;fill-opacity:1;fill-rule:nonzero;stroke:none;stroke-width:0.15087098"
       d="m 558.63827,303.5929 v -7.21314 c -2.15444,1.10437 -4.37978,1.93266 -6.71527,2.48484 -2.31737,0.53861 -4.71471,0.82829 -7.20559,0.82829 -3.78083,0 -6.61419,-0.57482 -8.5046,-1.74709 -1.90097,-1.14964 -2.84241,-2.90578 -2.84241,-5.21259 0,-1.76972 0.66836,-3.15773 2.02771,-4.16253 1.34727,-1.01838 4.07653,-1.96887 8.16212,-2.88315 l 2.61459,-0.5884 c 5.40269,-1.15718 9.24085,-2.78356 11.54012,-4.91386 2.27966,-2.10767 3.41572,-5.04965 3.41572,-8.83652 0,-4.31792 -1.70484,-7.72006 -5.11754,-10.22754 -3.4112,-2.51955 -8.09876,-3.77781 -14.06269,-3.77781 -2.48937,0 -5.06926,0.23989 -7.78041,0.72871 -2.68702,0.47524 -5.5249,1.20395 -8.51064,2.17707 v 7.87244 c 2.81526,-1.46495 5.59279,-2.57386 8.33563,-3.30256 2.72925,-0.72871 5.43437,-1.0908 8.11233,-1.0908 3.58922,0 6.35318,0.6065 8.29036,1.84063 1.93115,1.22658 2.90125,2.96461 2.90125,5.20505 0,2.06693 -0.69703,3.64655 -2.10163,4.75997 -1.39103,1.10438 -4.44165,2.16651 -9.17145,3.18036 l -2.65231,0.63065 c -4.71774,0.99424 -8.13497,2.51954 -10.23056,4.58195 -2.09862,2.05939 -3.14868,4.87464 -3.14868,8.46235 0,4.37677 1.53888,7.74723 4.63928,10.11741 3.08833,2.37622 7.49225,3.56206 13.18009,3.56206 2.81525,0 5.46606,-0.19915 7.95392,-0.61102 2.49088,-0.41641 4.78412,-1.03649 6.87066,-1.86477"
       inkscape:export-xdpi="90"
       inkscape:export-ydpi="90" /><path
       inkscape:connector-curvature="0"
       id="path92"
       style="fill:#282450;fill-opacity:1;fill-rule:nonzero;stroke:none;stroke-width:0.15087098"
       d="m 598.98268,285.88668 c -0.0543,4.18667 -1.21602,7.51187 -3.50171,9.99671 -2.28117,2.48334 -5.30463,3.71897 -9.05981,3.71897 -4.25305,0 -7.66122,-1.19037 -10.20038,-3.59676 -2.57839,-2.39885 -4.04335,-5.79345 -4.43259,-10.15513 z m 7.62502,-2.23591 v -3.71897 h -35.05487 c 0.32437,-5.25785 1.90399,-9.25744 4.74187,-11.99575 2.8228,-2.76395 6.77713,-4.12179 11.82829,-4.12179 2.93142,0 5.75874,0.35303 8.50761,1.07269 2.75038,0.71815 5.48265,1.78631 8.19833,3.23467 v -7.22219 c -2.74132,-1.14964 -5.54752,-2.03072 -8.41709,-2.6508 -2.88616,-0.60651 -5.79194,-0.90523 -8.75203,-0.90523 -7.3972,0 -13.25703,2.15293 -17.57345,6.47086 -4.33452,4.30736 -6.49801,10.13098 -6.49801,17.47538 0,7.60239 2.05486,13.62063 6.15704,18.09547 4.1052,4.46125 9.63463,6.68358 16.60336,6.68358 6.22644,0 11.1735,-2.00055 14.81553,-6.02277 3.61939,-4.03127 5.44342,-9.48827 5.44342,-16.39515"
       inkscape:export-xdpi="90"
       inkscape:export-ydpi="90" /></g></svg>