<?xml version="1.0" encoding="UTF-8" standalone="no"?>
<!-- Created with Inkscape (http://www.inkscape.org/) -->

<svg
   xmlns:dc="http://purl.org/dc/elements/1.1/"
   xmlns:cc="http://creativecommons.org/ns#"
   xmlns:rdf="http://www.w3.org/1999/02/22-rdf-syntax-ns#"
   xmlns:svg="http://www.w3.org/2000/svg"
   xmlns="http://www.w3.org/2000/svg"
   xmlns:sodipodi="http://sodipodi.sourceforge.net/DTD/sodipodi-0.dtd"
   xmlns:inkscape="http://www.inkscape.org/namespaces/inkscape"
   id="svg2"
   version="1.1"
   inkscape:version="0.91 r13725"
   xml:space="preserve"
   width="407.25876"
   height="407.25876"
   viewBox="0 0 407.25876 407.25876"
   sodipodi:docname="IconeGemocLanguage_Concurrent.svg"
   inkscape:export-filename="C:\Users\dvojtise\Pictures\gemoc_artwork\IconesGemoc_ai\IconeGemocLanguage-Concurrent-48.png"
   inkscape:export-xdpi="10.607507"
   inkscape:export-ydpi="10.607507"><metadata
     id="metadata8"><rdf:RDF><cc:Work
         rdf:about=""><dc:format>image/svg+xml</dc:format><dc:type
           rdf:resource="http://purl.org/dc/dcmitype/StillImage" /><dc:title></dc:title></cc:Work></rdf:RDF></metadata><defs
     id="defs6"><clipPath
       clipPathUnits="userSpaceOnUse"
       id="clipPath16"><path
         d="m 0,325.807 325.807,0 L 325.807,0 0,0 0,325.807 Z"
         id="path18"
         inkscape:connector-curvature="0" /></clipPath><clipPath
       clipPathUnits="userSpaceOnUse"
       id="clipPath28"><path
         d="m 0,325.807 325.807,0 L 325.807,0 0,0 0,325.807 Z"
         id="path30"
         inkscape:connector-curvature="0" /></clipPath><clipPath
       clipPathUnits="userSpaceOnUse"
       id="clipPath40"><path
         d="m 187.76,289.064 131.475,0 0,-126.328 -131.475,0 0,126.328 z"
         id="path42"
         inkscape:connector-curvature="0" /></clipPath><clipPath
       clipPathUnits="userSpaceOnUse"
       id="clipPath60"><path
         d="m 159.275,181.31 94.712,0 0,-94.1625 -94.712,0 0,94.1625 z"
         id="path62"
         inkscape:connector-curvature="0" /></clipPath><clipPath
       clipPathUnits="userSpaceOnUse"
       id="clipPath76"><path
         d="m 10.9258,236.375 173.3602,0 0,-208.6318 -173.3602,0 0,208.6318 z"
         id="path78"
         inkscape:connector-curvature="0" /></clipPath></defs><sodipodi:namedview
     pagecolor="#ffffff"
     bordercolor="#666666"
     borderopacity="1"
     objecttolerance="10"
     gridtolerance="10"
     guidetolerance="10"
     inkscape:pageopacity="0"
     inkscape:pageshadow="2"
     inkscape:window-width="1438"
     inkscape:window-height="933"
     id="namedview4"
     showgrid="false"
     inkscape:zoom="1.6390287"
     inkscape:cx="276.84361"
     inkscape:cy="177.88308"
     inkscape:window-x="3909"
     inkscape:window-y="121"
     inkscape:window-maximized="0"
     inkscape:current-layer="g10" /><g
     id="g10"
     inkscape:groupmode="layer"
     inkscape:label="IconeGemocLanguage"
     transform="matrix(1.25,0,0,-1.25,0,407.25875)"><g
       id="g12"><g
         id="g14"
         clip-path="url(#clipPath16)"><g
           id="g20"
           transform="translate(115.6528,274.9131)"><path
             d="m 0,0 c -12.009,-47.682 -58.487,-29.457 -78.191,-45.3 -24.278,-19.524 -19.182,-198.157 -19.182,-198.157 0,0 173.412,0.22 153.766,1.13 -18.389,0.851 42.596,44.724 59.102,82.468 9.349,21.377 15.581,57.954 22.839,69.33 14.624,22.923 55.437,19.885 51.434,51.991 C 187.133,-17.41 169.898,9.22 158.367,17.864 145.791,27.293 98.764,-20.854 77.395,-1.001 44.809,29.269 4.95,19.655 0,0"
             style="fill:#ffffff;fill-opacity:1;fill-rule:nonzero;stroke:#ffffff;stroke-width:8;stroke-linecap:butt;stroke-linejoin:miter;stroke-miterlimit:10;stroke-dasharray:none;stroke-opacity:1"
             id="path22"
             inkscape:connector-curvature="0" /></g></g></g><g
       id="g24"><g
         id="g26"
         clip-path="url(#clipPath28)"><g
           id="g32"
           transform="translate(281.1411,297.2588)"><path
             d="m 0,0 -9.667,4.081 c -3.456,1.46 -7.437,-0.159 -8.896,-3.614 l -3.382,-8.009 c -2.49,0.464 -5.037,0.773 -7.638,0.904 -2.598,0.132 -5.163,0.081 -7.688,-0.13 l -2.557,8.31 c -1.102,3.583 -4.903,5.593 -8.486,4.491 l -10.03,-3.087 c -3.584,-1.103 -5.593,-4.902 -4.492,-8.486 l 2.559,-8.309 c -4.486,-2.528 -8.602,-5.647 -12.235,-9.26 l -7.301,4.723 c -3.15,2.036 -7.353,1.134 -9.389,-2.014 l -5.698,-8.811 c -2.038,-3.151 -1.135,-7.353 2.012,-9.389 l 7.295,-4.718 c -1.774,-4.708 -2.941,-9.725 -3.411,-14.96 l -8.632,-1.077 c -3.722,-0.463 -6.362,-3.856 -5.898,-7.578 l 1.299,-10.412 c 0.278,-2.238 1.622,-4.08 3.454,-5.095 l 29.718,22.885 c 1.991,19.351 18.821,33.961 38.473,32.969 1.296,-0.065 2.571,-0.199 3.826,-0.393 L 3.601,-3.595 C 2.936,-2.032 1.689,-0.713 0,0"
             style="fill:#393536;fill-opacity:1;fill-rule:nonzero;stroke:none"
             id="path34"
             inkscape:connector-curvature="0" /></g><g
           id="g36"><g
             id="g38" /><g
             id="g44"><g
               clip-path="url(#clipPath40)"
               id="g46"
               style="opacity:0.80000299"><g
                 transform="translate(285.0054,289.064)"
                 id="g48"><path
                   d="m 0,0 -25.81,-19.874 c 15.911,-4.722 27.142,-19.834 26.269,-37.142 -1.026,-20.306 -18.319,-35.936 -38.624,-34.911 -19.303,0.975 -34.369,16.65 -34.932,35.635 l -24.148,-18.597 7.344,0.917 c 1.714,-4.884 4.081,-9.472 7.001,-13.655 l -5.919,-6.372 c -2.554,-2.748 -2.396,-7.044 0.353,-9.596 l 7.687,-7.143 c 2.748,-2.552 7.043,-2.393 9.596,0.355 l 5.914,6.366 c 4.361,-2.59 9.105,-4.615 14.139,-5.97 l -0.438,-8.679 c -0.191,-3.744 2.693,-6.935 6.439,-7.123 l 10.479,-0.53 c 3.745,-0.188 6.934,2.694 7.123,6.44 l 0.438,8.677 c 5.145,0.843 10.068,2.379 14.669,4.516 l 5.242,-6.93 c 2.262,-2.99 6.522,-3.581 9.511,-1.318 l 8.37,6.33 c 2.99,2.262 3.58,6.521 1.318,9.512 l -5.25,6.937 c 3.328,3.868 6.145,8.194 8.343,12.879 l 8.468,-1.938 c 3.656,-0.837 7.296,1.448 8.134,5.105 l 2.341,10.227 c 0.837,3.657 -1.449,7.299 -5.105,8.134 l -8.481,1.941 c 0.062,5.255 -0.594,10.364 -1.885,15.228 l 7.731,3.959 c 3.338,1.708 4.661,5.799 2.951,9.138 l -4.781,9.34 c -1.711,3.339 -5.801,4.658 -9.14,2.951 l -7.74,-3.964 c -3.252,3.961 -7.031,7.479 -11.238,10.445 l 3.381,8.008 C -0.152,-0.47 -0.07,-0.235 0,0"
                   style="fill:#4580a0;fill-opacity:1;fill-rule:nonzero;stroke:none"
                   id="path50"
                   inkscape:connector-curvature="0" /></g></g></g></g><g
           id="g52"
           transform="translate(142.4141,229.8345)"><path
             d="M 0,0 C -15.423,0.779 -27.337,13.96 -26.557,29.383 -25.778,44.806 -12.598,56.721 2.826,55.942 18.248,55.162 30.162,41.98 29.383,26.559 28.604,11.136 15.425,-0.778 0,0 m 33.722,-1.398 -3.508,4.637 c 2.223,2.586 4.106,5.478 5.577,8.61 l 5.659,-1.296 c 0.263,-0.06 0.527,-0.096 0.789,-0.109 2.159,-0.11 4.149,1.342 4.647,3.522 l 1.566,6.837 c 0.559,2.444 -0.969,4.878 -3.412,5.437 l -5.669,1.299 c 0.041,3.513 -0.399,6.929 -1.261,10.179 l 5.169,2.646 c 2.231,1.142 3.114,3.877 1.971,6.108 l -3.197,6.244 c -0.763,1.497 -2.248,2.388 -3.814,2.467 -0.77,0.038 -1.56,-0.118 -2.294,-0.495 L 30.77,52.039 c -2.172,2.649 -4.699,5 -7.512,6.982 l 2.259,5.355 c 0.976,2.31 -0.104,4.971 -2.416,5.946 l -6.46,2.728 c -0.503,0.213 -1.024,0.328 -1.536,0.354 -1.855,0.095 -3.65,-0.961 -4.412,-2.769 L 8.432,65.281 c -1.663,0.311 -3.366,0.516 -5.104,0.604 -1.738,0.087 -3.454,0.055 -5.14,-0.088 l -1.71,5.556 c -0.577,1.874 -2.26,3.105 -4.109,3.199 -0.516,0.027 -1.045,-0.036 -1.565,-0.197 l -6.703,-2.063 c -2.397,-0.738 -3.74,-3.276 -3.003,-5.673 l 1.708,-5.554 c -2.996,-1.691 -5.747,-3.774 -8.178,-6.19 l -4.881,3.156 c -0.692,0.448 -1.462,0.683 -2.23,0.723 -1.566,0.079 -3.133,-0.656 -4.045,-2.069 l -3.809,-5.891 c -1.363,-2.104 -0.759,-4.913 1.345,-6.275 l 4.877,-3.153 c -1.188,-3.149 -1.967,-6.502 -2.28,-10.002 l -5.772,-0.72 c -2.488,-0.311 -4.254,-2.579 -3.942,-5.066 l 0.869,-6.961 c 0.277,-2.218 2.109,-3.862 4.268,-3.971 0.264,-0.014 0.529,-0.003 0.799,0.03 l 5.759,0.718 c 1.148,-3.264 2.729,-6.331 4.682,-9.128 l -3.958,-4.26 c -1.707,-1.836 -1.602,-4.708 0.238,-6.414 l 5.139,-4.775 c 0.812,-0.755 1.829,-1.155 2.856,-1.208 1.294,-0.066 2.606,0.422 3.557,1.444 l 3.954,4.258 c 2.914,-1.732 6.087,-3.087 9.451,-3.992 l -0.294,-5.801 c -0.125,-2.504 1.802,-4.637 4.305,-4.763 l 7.006,-0.353 c 2.504,-0.127 4.635,1.801 4.764,4.304 l 0.292,5.801 c 3.437,0.562 6.731,1.591 9.805,3.019 l 3.504,-4.632 c 0.843,-1.115 2.099,-1.73 3.395,-1.797 1.027,-0.05 2.077,0.246 2.964,0.915 l 5.594,4.232 c 1.997,1.512 2.394,4.36 0.882,6.358"
             style="fill:#393536;fill-opacity:1;fill-rule:nonzero;stroke:none"
             id="path54"
             inkscape:connector-curvature="0" /></g><g
           id="g56"><g
             id="g58" /><g
             id="g64"><g
               clip-path="url(#clipPath60)"
               id="g66"
               style="opacity:0.80000299"><g
                 transform="translate(205.4185,106.751)"
                 id="g68"><path
                   d="M 0,0 C -15.423,0.779 -27.336,13.961 -26.557,29.383 -25.778,44.807 -12.598,56.721 2.826,55.941 18.248,55.163 30.162,41.982 29.384,26.559 28.604,11.137 15.424,-0.777 0,0 m 45.039,26.243 -5.669,1.296 c 0.043,3.514 -0.395,6.928 -1.259,10.181 l 5.168,2.644 c 2.232,1.143 3.115,3.878 1.973,6.109 l -3.196,6.244 c -0.767,1.496 -2.251,2.387 -3.817,2.465 -0.769,0.04 -1.558,-0.117 -2.293,-0.492 l -5.175,-2.65 c -2.173,2.648 -4.701,5 -7.512,6.983 l 2.26,5.353 c 0.975,2.31 -0.107,4.972 -2.415,5.947 l -6.464,2.728 c -0.501,0.212 -1.022,0.328 -1.536,0.354 -1.851,0.093 -3.647,-0.962 -4.41,-2.769 L 8.432,65.282 c -1.662,0.31 -3.366,0.516 -5.104,0.605 -1.737,0.086 -3.452,0.053 -5.139,-0.089 l -1.71,5.555 c -0.577,1.875 -2.259,3.106 -4.109,3.2 -0.516,0.025 -1.044,-0.036 -1.564,-0.198 l -6.705,-2.063 c -2.396,-0.737 -3.741,-3.277 -3.003,-5.673 l 1.711,-5.555 c -2.999,-1.688 -5.75,-3.773 -8.179,-6.189 l -4.882,3.158 c -0.693,0.447 -1.463,0.683 -2.232,0.721 -1.567,0.079 -3.13,-0.655 -4.044,-2.069 l -3.809,-5.889 c -1.361,-2.107 -0.759,-4.916 1.346,-6.277 l 4.876,-3.152 c -1.187,-3.151 -1.966,-6.503 -2.28,-10.003 l -5.771,-0.72 c -2.488,-0.309 -4.254,-2.577 -3.942,-5.065 l 0.865,-6.96 c 0.279,-2.221 2.115,-3.863 4.274,-3.973 0.261,-0.013 0.526,-0.004 0.793,0.03 l 5.764,0.718 c 1.144,-3.263 2.728,-6.33 4.68,-9.125 l -3.956,-4.261 c -1.708,-1.837 -1.602,-4.709 0.235,-6.415 l 5.138,-4.776 c 0.816,-0.754 1.832,-1.155 2.858,-1.206 1.294,-0.065 2.607,0.421 3.558,1.444 l 3.953,4.256 c 2.916,-1.73 6.088,-3.085 9.451,-3.991 l -0.292,-5.801 c -0.127,-2.503 1.801,-4.636 4.305,-4.763 l 7.003,-0.354 c 2.504,-0.127 4.637,1.802 4.764,4.306 l 0.292,5.801 c 3.44,0.561 6.733,1.589 9.806,3.017 l 3.505,-4.631 c 0.842,-1.114 2.1,-1.73 3.392,-1.796 1.031,-0.052 2.08,0.244 2.966,0.914 l 5.595,4.231 c 1.999,1.514 2.393,4.36 0.881,6.359 l -3.508,4.636 c 2.224,2.586 4.105,5.478 5.576,8.613 l 5.661,-1.298 c 0.264,-0.061 0.528,-0.095 0.788,-0.109 2.159,-0.11 4.149,1.342 4.649,3.521 l 1.565,6.838 c 0.558,2.445 -0.969,4.879 -3.414,5.439"
                   style="fill:#4580a0;fill-opacity:1;fill-rule:nonzero;stroke:none"
                   id="path70"
                   inkscape:connector-curvature="0" /></g></g></g></g><g
           id="g72"><g
             id="g74" /><g
             id="g80"><g
               clip-path="url(#clipPath76)"
               id="g82"
               style="opacity:0.80000299"><g
                 transform="translate(10.9258,27.7432)"
                 id="g84"><path
                   d="m 0,0 0,208.632 92.422,0 0,-156.269 80.938,0 L 173.36,0 0,0 Z"
                   style="fill:#393536;fill-opacity:1;fill-rule:nonzero;stroke:none"
                   id="path86"
                   inkscape:connector-curvature="0" /></g></g></g></g><g
           id="g88"
           transform="translate(10.9258,74.6094)"><path
             d="m 0,0 0,37.994 m 0,0 0,116.129 m 0,0 0,7.643 m 0,0 92.422,0 m 0,0 0,-89.245 m 0,0 0,-67.024 80.938,0 0,-52.363 L 0,-46.866 0,0"
             style="fill:#393536;fill-opacity:1;fill-rule:nonzero;stroke:none"
             id="path90"
             inkscape:connector-curvature="0" /></g><g
           id="g92"
           transform="translate(6.4517,74.6094)"><path
             d="M 0,0 284.236,219.549"
             style="fill:#ffffff;fill-opacity:1;fill-rule:nonzero;stroke:#ffffff;stroke-width:8;stroke-linecap:butt;stroke-linejoin:miter;stroke-miterlimit:10;stroke-dasharray:none;stroke-opacity:1"
             id="path94"
             inkscape:connector-curvature="0" /></g></g></g><text
       xml:space="preserve"
       style="font-style:normal;font-weight:bold;font-size:183.25444031px;line-height:125%;font-family:sans-serif;letter-spacing:0px;word-spacing:0px;fill:#d4ae74;fill-opacity:1;stroke:#935800;stroke-width:5.72670126px;stroke-linecap:butt;stroke-linejoin:miter;stroke-opacity:1;-inkscape-font-specification:'sans-serif Bold';font-stretch:normal;font-variant:normal;"
       x="193.56674"
       y="-8.8979645"
       id="text4226"
       sodipodi:linespacing="125%"
       transform="scale(1,-1)"><tspan
         sodipodi:role="line"
         id="tspan4228"
         x="193.56674"
         y="-8.8979645"
         style="stroke-width:5.72670126px;-inkscape-font-specification:'sans-serif Bold';font-family:sans-serif;font-weight:bold;font-style:normal;font-stretch:normal;font-variant:normal;">C</tspan></text>
</g></svg>