<svg xmlns="http://www.w3.org/2000/svg" xmlns:xlink="http://www.w3.org/1999/xlink" viewBox="0 0 452 302"><defs><style>.cls-1{fill:#2d2c2c;}.cls-2{fill:url(#radial-gradient);}.cls-3{opacity:0.62;}.cls-4{fill:url(#radial-gradient-2);}.cls-5{fill:url(#linear-gradient);}.cls-6{fill:url(#linear-gradient-2);}.cls-7{fill:url(#linear-gradient-3);}.cls-8{fill:url(#radial-gradient-3);}.cls-9{fill:url(#radial-gradient-4);}.cls-10{fill:url(#radial-gradient-5);}.cls-11{opacity:0.3;}.cls-12{fill:url(#radial-gradient-6);}.cls-13{fill:url(#linear-gradient-4);}.cls-14{fill:url(#linear-gradient-5);}.cls-15{fill:url(#linear-gradient-6);}.cls-16{fill:url(#radial-gradient-7);}.cls-17{fill:url(#radial-gradient-8);}.cls-18{fill:url(#radial-gradient-9);}.cls-19{fill:#c1bc1f;}.cls-20{fill:#fff;}</style><radialGradient id="radial-gradient" cx="125.91" cy="153.51" r="3.99" gradientUnits="userSpaceOnUse"><stop offset="0" stop-color="#fff"/><stop offset="0.02" stop-color="#fdffda"/><stop offset="0.04" stop-color="#faffb6"/><stop offset="0.07" stop-color="#f8ff96"/><stop offset="0.09" stop-color="#f7ff7a"/><stop offset="0.13" stop-color="#f5ff64"/><stop offset="0.16" stop-color="#f4ff53"/><stop offset="0.21" stop-color="#f4ff48"/><stop offset="0.27" stop-color="#f3ff41"/><stop offset="0.45" stop-color="#f3ff3f"/><stop offset="0.79" stop-color="#fbffb9" stop-opacity="0.36"/><stop offset="1" stop-color="#fff" stop-opacity="0"/></radialGradient><radialGradient id="radial-gradient-2" cx="104.08" cy="212.51" r="5.89" xlink:href="#radial-gradient"/><linearGradient id="linear-gradient" x1="23.36" y1="139.71" x2="180.62" y2="139.71" gradientUnits="userSpaceOnUse"><stop offset="0" stop-color="#f4e8d9"/><stop offset="0.11" stop-color="#f4e7d2"/><stop offset="0.26" stop-color="#f5e4c0"/><stop offset="0.43" stop-color="#f6dfa2"/><stop offset="0.63" stop-color="#f7d878"/><stop offset="0.84" stop-color="#f9cf44"/><stop offset="1" stop-color="#fac715"/></linearGradient><linearGradient id="linear-gradient-2" x1="144.02" y1="105.68" x2="57.89" y2="167.65" xlink:href="#linear-gradient"/><linearGradient id="linear-gradient-3" x1="88.36" y1="163.68" x2="119.41" y2="113.68" xlink:href="#linear-gradient"/><radialGradient id="radial-gradient-3" cx="126.33" cy="152.61" r="6.75" xlink:href="#radial-gradient"/><radialGradient id="radial-gradient-4" cx="104.08" cy="212.51" r="9.97" xlink:href="#radial-gradient"/><radialGradient id="radial-gradient-5" cx="73.04" cy="97.88" r="9.63" xlink:href="#radial-gradient"/><radialGradient id="radial-gradient-6" cx="-465.61" cy="592.64" r="12.03" gradientTransform="translate(-58.89 -481.14) rotate(-61.22)" xlink:href="#radial-gradient"/><linearGradient id="linear-gradient-4" x1="26.72" y1="281.17" x2="177.94" y2="5.83" xlink:href="#linear-gradient"/><linearGradient id="linear-gradient-5" x1="83.5" y1="13.07" x2="115.24" y2="273.04" xlink:href="#linear-gradient"/><linearGradient id="linear-gradient-6" x1="52.31" y1="231.07" x2="155.51" y2="50.29" xlink:href="#linear-gradient"/><radialGradient id="radial-gradient-7" cx="-400.53" cy="516.09" r="14.62" gradientTransform="translate(-58.89 -481.14) rotate(-61.22)" xlink:href="#radial-gradient"/><radialGradient id="radial-gradient-8" cx="-465.61" cy="592.64" r="20.38" gradientTransform="translate(-58.89 -481.14) rotate(-61.22)" xlink:href="#radial-gradient"/><radialGradient id="radial-gradient-9" cx="20.21" cy="375.18" r="14.62" gradientTransform="matrix(0.93, -0.37, 0.37, 0.93, 45.37, -184.27)" xlink:href="#radial-gradient"/></defs><title>PhotonSplashScreen</title><g id="Layer_1" data-name="Layer 1"><rect class="cls-1" x="-7.34" y="-0.84" width="467" height="306.18"/></g><g id="Layer_2" data-name="Layer 2"><circle class="cls-2" cx="125.91" cy="153.51" r="3.99"/><g class="cls-3"><circle class="cls-4" cx="104.08" cy="212.51" r="5.89"/><path class="cls-5" d="M102,216.58a81.23,81.23,0,0,1-26.44-5.49A78.32,78.32,0,0,1,36,176.65a76.83,76.83,0,0,1,.16-75.58,75.5,75.5,0,0,1,64.37-38.22,79.53,79.53,0,0,1,13,.8,76.88,76.88,0,0,1,63.08,58.92,79.11,79.11,0,0,1-21.93,73.78,3.5,3.5,0,1,1-4.94-5,1.7,1.7,0,0,1,.24-.22h0a70.19,70.19,0,0,0,24.8-42.69c.15-1.06.38-2.1.47-3.16l.34-3.18c.12-2.12.28-4.25.23-6.39A71.21,71.21,0,0,0,174.61,123a75,75,0,0,0-9-24,74.27,74.27,0,0,0-128.83,2.48,73.21,73.21,0,0,0-8.29,24.39,74.89,74.89,0,0,0,.62,25.65,71.21,71.21,0,0,0,9.31,23.75,72.12,72.12,0,0,0,39,30.92A71.35,71.35,0,0,0,102,209.58h0a3.51,3.51,0,1,1,.23,7Z"/><path class="cls-6" d="M71,95A56.07,56.07,0,0,1,87.74,88a53.48,53.48,0,0,1,17.85-1.22,52.66,52.66,0,0,1,17,4.81,53.31,53.31,0,0,1,14.3,10.1,49.14,49.14,0,0,1,10,14.21,51.41,51.41,0,0,1,4.69,16.61,48.94,48.94,0,0,1-1.27,17.14,50.33,50.33,0,0,1-6.84,15.7,47.76,47.76,0,0,1-11.76,12.42,51.65,51.65,0,0,1-15.22,7.8,50.37,50.37,0,0,1-33.85-1.27,51.39,51.39,0,0,1-14.88-8.94l-3.16-3.05a17.54,17.54,0,0,1-1.49-1.62L61.66,169a44.05,44.05,0,0,1-5-7.25,54.46,54.46,0,0,1-6.48-34.86h0a3.51,3.51,0,1,1,7,1,4.19,4.19,0,0,1-.11.51,44.51,44.51,0,0,0-1.73,16,45.63,45.63,0,0,0,4.21,15.87,41.29,41.29,0,0,0,4.24,7.18l1.24,1.69a14.62,14.62,0,0,0,1.3,1.64l2.86,3.09a49,49,0,0,0,14,9.42,48.32,48.32,0,0,0,33.4,2.15,49.87,49.87,0,0,0,15.24-7.7,47.73,47.73,0,0,0,11.64-12.49A50,50,0,0,0,150,149.53a47.86,47.86,0,0,0,.83-17A48.37,48.37,0,0,0,135.57,103a47.28,47.28,0,0,0-14.1-8.91,45.95,45.95,0,0,0-46.38,6.6h0a3.51,3.51,0,0,1-4.41-5.45A2.52,2.52,0,0,1,71,95Z"/><path class="cls-7" d="M128,153.67a30.32,30.32,0,0,1-16,11.55,29,29,0,0,1-19.19-1,27.25,27.25,0,0,1-8.1-5.18,28.25,28.25,0,0,1-5.9-7.51,27.17,27.17,0,0,1-3-9,27.69,27.69,0,0,1,.19-9.48,26.37,26.37,0,0,1,3.39-8.83,28.46,28.46,0,0,1,33.24-12.29l2.26.9c.76.29,1.46.71,2.19,1.06a23.82,23.82,0,0,1,4.12,2.64A30.18,30.18,0,0,1,132,132.94v0a2,2,0,0,1-3.89,1,1.67,1.67,0,0,1-.05-.31,24.64,24.64,0,0,0-8-15.79,23.15,23.15,0,0,0-3.67-2.78c-.67-.38-1.3-.84-2-1.17l-2.11-1a27,27,0,0,0-9.12-1.88,26.5,26.5,0,0,0-17.53,6,27.84,27.84,0,0,0-6.19,7.14A26.27,26.27,0,0,0,76.16,133a27.4,27.4,0,0,0-.11,9.43,26.76,26.76,0,0,0,17.21,20.73,26.32,26.32,0,0,0,18.08-.06,25.39,25.39,0,0,0,13.29-11.54,2,2,0,0,1,3.52,1.9A1.43,1.43,0,0,1,128,153.67Z"/><circle class="cls-8" cx="126.33" cy="152.61" r="6.75"/><circle class="cls-9" cx="104.08" cy="212.51" r="9.97"/><circle class="cls-10" cx="73.04" cy="97.88" r="9.63"/></g><g class="cls-11"><circle class="cls-12" cx="236.41" cy="212.27" r="12.03"/><path class="cls-13" d="M238.44,218.26A163,163,0,0,1,223,240.58,156.15,156.15,0,0,1,204,260a156.87,156.87,0,0,1-98.9,37.6A155.19,155.19,0,0,1-29.78,224.18a153.32,153.32,0,0,1-19.7-49.29A153,153,0,0,1-35.24,71.43,162.2,162.2,0,0,1-21,49,155.39,155.39,0,0,1,146.3-5.09,164.32,164.32,0,0,1,171.21,4.8c4,1.92,7.89,4.21,11.78,6.44l5.66,3.64c.95.58,1.86,1.24,2.77,1.9l2.72,2c.91.66,1.84,1.3,2.72,2l2.62,2.12c1.74,1.41,3.53,2.77,5.17,4.31s3.38,3,5,4.51l4.79,4.75a162.36,162.36,0,0,1,16.95,21,149.94,149.94,0,0,1,13.18,23.63,165.57,165.57,0,0,1,9.09,25.59,3.5,3.5,0,1,1-6.77,1.79l0-.14v0A150.15,150.15,0,0,0,227.37,60a155.83,155.83,0,0,0-15.83-20.91,146.87,146.87,0,0,0-19.32-17.81l-2.63-2c-.87-.67-1.74-1.33-2.67-1.93l-5.46-3.7C177.7,11.41,174,9.06,170,7.08A152.14,152.14,0,0,0,145.71-3.19a154.05,154.05,0,0,0-52.26-7A154.46,154.46,0,0,0,41.82,1.15,148.07,148.07,0,0,0,18.2,13.31,155.22,155.22,0,0,0-20.92,49,157.71,157.71,0,0,0-35.23,71.44a152.76,152.76,0,0,0,6.07,152.35,154,154,0,0,0,16,21.14,142.87,142.87,0,0,0,19.44,18,154.19,154.19,0,0,0,46.64,24.6,151.1,151.1,0,0,0,103.34-3.83A153.25,153.25,0,0,0,200.49,256a149.87,149.87,0,0,0,31.82-41.06v0a3.5,3.5,0,0,1,6.18,3.29A.6.6,0,0,1,238.44,218.26Z"/><path class="cls-14" d="M-28.86,158.71a134.47,134.47,0,0,1,3.17-44.95A130.73,130.73,0,0,1,23,40.4a128.46,128.46,0,0,1,163.77,7.87,127,127,0,0,1,40.53,76.62,134.22,134.22,0,0,1,1.3,22,129.25,129.25,0,0,1-86.45,117.66,137.12,137.12,0,0,1-21.59,5.47c-3.67.68-7.38,1-11.08,1.4l-5.58.31c-.93.07-1.87.07-2.8.07h-2.8a133.48,133.48,0,0,1-22.29-2A134.91,134.91,0,0,1,54.3,264a125.91,125.91,0,0,1-20.44-9.49,138.42,138.42,0,0,1-18.67-12.81,3.5,3.5,0,1,1,4.43-5.42l.14.11,0,0A123.52,123.52,0,0,0,56,259.47a129.81,129.81,0,0,0,20.71,6.47,122.44,122.44,0,0,0,21.6,2.69l2.73.08c.91,0,1.82.05,2.73,0l5.46-.14c3.63-.28,7.28-.49,10.88-1.05a125.33,125.33,0,0,0,21.35-4.82A127.8,127.8,0,0,0,180.1,242.2c23.06-18.12,39.82-44.46,45.7-73.37A126.64,126.64,0,0,0,149.3,25.25a128.71,128.71,0,0,0-21-6.46,118.65,118.65,0,0,0-21.82-2.68A127.73,127.73,0,0,0,63.16,22.2,123.86,123.86,0,0,0-21.91,157.86v0a3.5,3.5,0,0,1-3,4,3.49,3.49,0,0,1-3.95-3A.89.89,0,0,1-28.86,158.71Z"/><path class="cls-15" d="M192.76,191.4a106.94,106.94,0,0,1-23.47,27,103.8,103.8,0,0,1-65.74,23.37,102.27,102.27,0,0,1-87.66-49.93A100.95,100.95,0,0,1,14.07,91.7a106.27,106.27,0,0,1,9.56-14.57A101.92,101.92,0,0,1,99.2,38.73a102.81,102.81,0,0,1,34.69,4.49,109.4,109.4,0,0,1,16.3,6.68c2.65,1.29,5.17,2.83,7.71,4.32l3.7,2.43c1.25.79,2.4,1.73,3.6,2.58,19.06,14.06,32.85,35.09,38.86,58.39a3.5,3.5,0,0,1-6.78,1.75c0-.08,0-.15-.05-.23v0a96.5,96.5,0,0,0-11.76-31.6,102.28,102.28,0,0,0-9.95-13.84,93.42,93.42,0,0,0-12.29-11.9c-1.14-.87-2.21-1.82-3.39-2.64l-3.5-2.49c-2.42-1.54-4.81-3.13-7.35-4.48a97.24,97.24,0,0,0-15.72-7A99.43,99.43,0,0,0,3,124.59a99.63,99.63,0,0,0,13.48,66.89,101.89,101.89,0,0,0,10.28,14,92.68,92.68,0,0,0,12.55,12A100.44,100.44,0,0,0,69.6,233.86a97.88,97.88,0,0,0,96.28-19.46,97.12,97.12,0,0,0,20.8-26.47l0,0a3.5,3.5,0,1,1,6.16,3.33Z"/><circle class="cls-16" cx="200.64" cy="118.38" r="14.62"/><circle class="cls-17" cx="236.41" cy="212.27" r="20.38"/><circle class="cls-18" cx="201.15" cy="157.64" r="14.62"/></g><path class="cls-19" d="M388,165.05h-.19a8.4,8.4,0,0,1-7.41,3.6,8.75,8.75,0,0,1-7.2-3.17c-1.72-2.11-2.57-5.11-2.57-9s.86-6.91,2.58-9.06a8.7,8.7,0,0,1,7.19-3.23,8.57,8.57,0,0,1,7.36,3.49H388l-.15-1.7-.08-1.66v-9.6h3.57v33.5h-2.91Zm-7.15.61q3.66,0,5.31-2c1.1-1.32,1.65-3.47,1.65-6.42v-.76c0-3.34-.56-5.73-1.67-7.15s-2.89-2.15-5.33-2.15a5.46,5.46,0,0,0-4.81,2.45,12.09,12.09,0,0,0-1.67,6.9c0,3,.55,5.29,1.66,6.82A5.59,5.59,0,0,0,380.82,165.66Z"/><path class="cls-20" d="M370.48,180.57a3.19,3.19,0,0,1-1.18,2.67,5.39,5.39,0,0,1-3.39.93h-1.34v4.49h-1.33V177.24h3C369.06,177.24,370.48,178.35,370.48,180.57ZM364.57,183h1.19a4.47,4.47,0,0,0,2.56-.57,2.12,2.12,0,0,0,.79-1.83,2,2,0,0,0-.75-1.69,3.85,3.85,0,0,0-2.31-.55h-1.48Z"/><path class="cls-20" d="M378.54,188.66v-5.54a2.24,2.24,0,0,0-.48-1.56,2,2,0,0,0-1.49-.51,2.43,2.43,0,0,0-2,.73,3.68,3.68,0,0,0-.63,2.41v4.47h-1.29V176.51H374v3.68a8.33,8.33,0,0,1-.06,1.1H374a2.58,2.58,0,0,1,1.09-1,3.5,3.5,0,0,1,1.61-.36,3.31,3.31,0,0,1,2.36.75,3.13,3.13,0,0,1,.78,2.37v5.58Z"/><path class="cls-20" d="M389.89,184.37a4.68,4.68,0,0,1-1.06,3.27,3.68,3.68,0,0,1-2.91,1.18,3.84,3.84,0,0,1-2-.54,3.52,3.52,0,0,1-1.37-1.55,5.26,5.26,0,0,1-.49-2.36,4.71,4.71,0,0,1,1.05-3.26,3.69,3.69,0,0,1,2.9-1.17,3.63,3.63,0,0,1,2.86,1.2A4.68,4.68,0,0,1,389.89,184.37Zm-6.53,0a4,4,0,0,0,.66,2.5,2.61,2.61,0,0,0,3.86,0,4.06,4.06,0,0,0,.66-2.51,4,4,0,0,0-.66-2.48,2.33,2.33,0,0,0-1.95-.84,2.29,2.29,0,0,0-1.92.83A4,4,0,0,0,383.36,184.37Z"/><path class="cls-20" d="M394.93,187.75a4.65,4.65,0,0,0,.66-.05,4.71,4.71,0,0,0,.51-.11v1a2.15,2.15,0,0,1-.62.17,4.16,4.16,0,0,1-.74.07c-1.66,0-2.48-.87-2.48-2.62v-5.09H391v-.63l1.23-.54.54-1.82h.75v2H396v1h-2.49v5a1.69,1.69,0,0,0,.37,1.18A1.26,1.26,0,0,0,394.93,187.75Z"/><path class="cls-20" d="M405.2,184.37a4.72,4.72,0,0,1-1.05,3.27,3.72,3.72,0,0,1-2.92,1.18,3.89,3.89,0,0,1-2-.54,3.52,3.52,0,0,1-1.37-1.55,5.26,5.26,0,0,1-.49-2.36,4.71,4.71,0,0,1,1.05-3.26,3.71,3.71,0,0,1,2.91-1.17,3.61,3.61,0,0,1,2.85,1.2A4.68,4.68,0,0,1,405.2,184.37Zm-6.52,0a4.1,4.1,0,0,0,.65,2.5,2.26,2.26,0,0,0,1.93.86,2.3,2.3,0,0,0,1.94-.85,4.06,4.06,0,0,0,.66-2.51,4,4,0,0,0-.66-2.48,2.33,2.33,0,0,0-1.95-.84,2.26,2.26,0,0,0-1.92.83A4,4,0,0,0,398.68,184.37Z"/><path class="cls-20" d="M413.33,188.66v-5.54a2.29,2.29,0,0,0-.47-1.56,2,2,0,0,0-1.5-.51,2.45,2.45,0,0,0-2,.72,3.67,3.67,0,0,0-.63,2.4v4.49h-1.3V180.1h1.06l.21,1.17h.06a2.68,2.68,0,0,1,1.12-1,3.65,3.65,0,0,1,1.6-.35,3.25,3.25,0,0,1,2.33.75,3.18,3.18,0,0,1,.78,2.39v5.58Z"/><path class="cls-20" d="M193.57,161.53h-6A17.64,17.64,0,0,0,204.37,174a19.77,19.77,0,0,0,2.81-.2,17.88,17.88,0,0,0,14-12.24H193.57Z"/><path class="cls-20" d="M221.6,153.41a20.63,20.63,0,0,1,.23,2.11H186.92a18.16,18.16,0,0,1,.23-2.11H221.6Z"/><path class="cls-20" d="M221.83,157.47a20.63,20.63,0,0,1-.23,2.11H187.15a18.16,18.16,0,0,1-.23-2.11Z"/><path class="cls-20" d="M221.15,151.46a17,17,0,0,0-4.44-7.34,16.78,16.78,0,0,0-9.5-4.89,18.79,18.79,0,0,0-2.84-.21,16.94,16.94,0,0,0-12.37,5.1,17.13,17.13,0,0,0-4.41,7.34Z"/><path class="cls-20" d="M185.88,156.5a18.57,18.57,0,0,1,15.94-18.23l-.68,0a18.25,18.25,0,1,0,0,36.49h.68A18.58,18.58,0,0,1,185.88,156.5Z"/><rect class="cls-20" x="282.67" y="136.8" width="3.64" height="4.61"/><path class="cls-20" d="M252.27,155.77v1.78H235.53a8.37,8.37,0,0,0,2.27,5.73,7.76,7.76,0,0,0,5.64,2,16.15,16.15,0,0,0,4.07-.51,18.29,18.29,0,0,0,3.91-1.55v3.45a22.29,22.29,0,0,1-4,1.26,20.09,20.09,0,0,1-4.17.44,10.68,10.68,0,0,1-11.5-11.44q0-5.44,2.94-8.64a10.23,10.23,0,0,1,7.92-3.19,9.06,9.06,0,0,1,7.08,2.88,11.24,11.24,0,0,1,2.6,7.82m-3.64-1.07a6.9,6.9,0,0,0-1.67-4.76,5.59,5.59,0,0,0-4.33-1.79,6.81,6.81,0,0,0-4.87,1.73,7.22,7.22,0,0,0-2.11,4.84Z"/><path class="cls-20" d="M271.16,146.45v3.41a14,14,0,0,0-3.1-1.28,12,12,0,0,0-3.14-.43,6.91,6.91,0,0,0-5.5,2.25,11.11,11.11,0,0,0,0,12.6,6.91,6.91,0,0,0,5.5,2.25,12,12,0,0,0,3.14-.42,14.53,14.53,0,0,0,3.1-1.28v3.36A14.9,14.9,0,0,1,268,168a16.13,16.13,0,0,1-3.47.36,10.39,10.39,0,0,1-8-3.15,12,12,0,0,1-2.95-8.49c0-3.61,1-6.46,3-8.53a10.78,10.78,0,0,1,8.16-3.1,15.56,15.56,0,0,1,3.29.34,15.16,15.16,0,0,1,3.11,1"/><rect class="cls-20" x="274.45" y="136.97" width="3.64" height="30.79"/><path class="cls-20" d="M282.67,145.6h3.64v22.16h-3.64Z"/><path class="cls-20" d="M294.41,164.44v11.75h-3.66V145.6h3.66V149a7.63,7.63,0,0,1,2.9-2.93,8.58,8.58,0,0,1,4.18-1,7.94,7.94,0,0,1,6.56,3.2,15.31,15.31,0,0,1,0,16.86,7.94,7.94,0,0,1-6.56,3.21,8.58,8.58,0,0,1-4.18-1,7.59,7.59,0,0,1-2.9-2.94m12.39-7.74a10.57,10.57,0,0,0-1.65-6.3,5.66,5.66,0,0,0-9.09,0,12.85,12.85,0,0,0,0,12.6,5.66,5.66,0,0,0,9.09,0,10.57,10.57,0,0,0,1.65-6.3"/><path class="cls-20" d="M327.7,146.25v3.45a14.05,14.05,0,0,0-3.2-1.19,15.08,15.08,0,0,0-3.45-.4A7.83,7.83,0,0,0,317,149a2.71,2.71,0,0,0-1.36,2.49,2.34,2.34,0,0,0,1,2,11.44,11.44,0,0,0,3.9,1.37l1.25.28a11.81,11.81,0,0,1,5.51,2.34,5.51,5.51,0,0,1,1.63,4.23,5.76,5.76,0,0,1-2.45,4.89,11.07,11.07,0,0,1-6.71,1.8A21,21,0,0,1,316,168a31.26,31.26,0,0,1-4.07-1v-3.76a19.72,19.72,0,0,0,4,1.58,14.9,14.9,0,0,0,3.88.52,7.34,7.34,0,0,0,3.95-.88,2.78,2.78,0,0,0,1.39-2.48,2.73,2.73,0,0,0-1-2.28,12.07,12.07,0,0,0-4.38-1.52l-1.27-.3a9.82,9.82,0,0,1-4.89-2.19,5.4,5.4,0,0,1-1.5-4,5.72,5.72,0,0,1,2.22-4.83,10.08,10.08,0,0,1,6.29-1.7,24.12,24.12,0,0,1,3.8.29,16.73,16.73,0,0,1,3.28.89"/><path class="cls-20" d="M350.6,155.77v1.78H333.86a8.42,8.42,0,0,0,2.27,5.73,7.79,7.79,0,0,0,5.65,2,16.21,16.21,0,0,0,4.07-.51,18.21,18.21,0,0,0,3.9-1.55v3.45a21.94,21.94,0,0,1-4,1.26,20.18,20.18,0,0,1-4.18.44,10.68,10.68,0,0,1-11.5-11.44q0-5.44,2.94-8.64a10.24,10.24,0,0,1,7.93-3.19A9,9,0,0,1,348,148a11.19,11.19,0,0,1,2.6,7.82M347,154.7a6.85,6.85,0,0,0-1.67-4.76,5.58,5.58,0,0,0-4.32-1.79,6.83,6.83,0,0,0-4.88,1.73,7.26,7.26,0,0,0-2.11,4.84Z"/><rect class="cls-19" x="361.67" y="136.8" width="3.64" height="4.61"/><path class="cls-19" d="M361.67,145.6h3.64v22.16h-3.64Z"/><path class="cls-19" d="M415.35,155.77v1.78H398.61a8.42,8.42,0,0,0,2.27,5.73,7.79,7.79,0,0,0,5.65,2,16.21,16.21,0,0,0,4.07-.51,18.21,18.21,0,0,0,3.9-1.55v3.45a21.94,21.94,0,0,1-4,1.26,20.18,20.18,0,0,1-4.18.44,10.68,10.68,0,0,1-11.5-11.44q0-5.44,2.94-8.64a10.24,10.24,0,0,1,7.93-3.19,9,9,0,0,1,7.07,2.88,11.19,11.19,0,0,1,2.6,7.82m-3.64-1.07a6.85,6.85,0,0,0-1.67-4.76,5.58,5.58,0,0,0-4.32-1.79,6.83,6.83,0,0,0-4.88,1.73,7.26,7.26,0,0,0-2.11,4.84Z"/></g></svg>